M48
; DRILL file {KiCad (6.0.7)} date Tue Sep 13 12:21:30 2022
; FORMAT={-:-/ absolute / inch / decimal}
; #@! TF.CreationDate,2022-09-13T12:21:30-04:00
; #@! TF.GenerationSoftware,Kicad,Pcbnew,(6.0.7)
; #@! TF.FileFunction,Plated,1,2,PTH
FMAT,2
INCH
; #@! TA.AperFunction,Plated,PTH,ViaDrill
T1C0.0250
; #@! TA.AperFunction,Plated,PTH,ViaDrill
T2C0.0500
; #@! TA.AperFunction,Plated,PTH,ComponentDrill
T3C0.0512
; #@! TA.AperFunction,Plated,PTH,ComponentDrill
T4C0.1693
%
G90
G05
T1
X3.55Y-3.2
X3.575Y-1.825
X3.575Y-1.9
X3.575Y-1.975
X3.575Y-2.05
X3.575Y-2.125
X3.575Y-2.2
X3.625Y-2.25
X3.65Y-1.825
X3.7Y-2.25
X3.725Y-1.825
X3.8Y-1.825
X3.85Y-2.875
X3.875Y-1.825
X3.9Y-2.65
X3.925Y-2.8
X3.925Y-2.875
X3.925Y-2.95
X3.95Y-1.825
X3.95Y-2.275
X3.95Y-2.35
X3.975Y-3.1
X3.975Y-3.175
X4.0Y-1.875
X4.0Y-1.95
X4.025Y-2.2
X4.025Y-2.275
X4.025Y-2.35
X4.025Y-2.65
X4.1Y-2.2
X4.1Y-2.275
X4.1Y-2.35
X4.1Y-2.65
X4.1Y-2.725
X4.1Y-2.8
X4.1Y-2.875
X4.175Y-2.2
X4.175Y-2.65
X4.175Y-2.725
X4.25Y-2.65
X4.5Y-1.875
X4.5Y-3.05
X4.5Y-3.125
X4.525Y-2.8
X4.55Y-1.825
X4.55Y-3.175
X4.575Y-2.575
X4.575Y-2.65
X4.575Y-2.725
X4.625Y-1.825
X4.625Y-3.175
X4.7Y-1.825
X4.7Y-3.175
X4.775Y-1.825
X4.775Y-3.175
X4.8Y-2.75
X4.85Y-1.825
X4.85Y-3.175
X4.875Y-2.25
X4.875Y-2.75
X4.925Y-1.825
X4.925Y-1.9
X4.925Y-1.975
X4.925Y-2.05
X4.925Y-2.125
X4.925Y-2.2
X4.925Y-2.8
X4.925Y-2.875
X4.925Y-2.95
X4.925Y-3.025
X4.925Y-3.1
X4.925Y-3.175
T2
X4.025Y-2.5
T3
X3.806Y-2.7352
X4.0148Y-2.944
X4.2236Y-2.3177
X4.3627Y-2.1785
X4.4323Y-2.5264
X4.5019Y-2.0393
X4.5715Y-2.3873
X4.7107Y-2.2481
T4
X3.8Y-2.05
X4.7Y-2.95
T0
M30
