%TF.GenerationSoftware,KiCad,Pcbnew,(6.0.7)*%
%TF.CreationDate,2022-09-13T12:21:28-04:00*%
%TF.ProjectId,switch-board,73776974-6368-42d6-926f-6172642e6b69,A*%
%TF.SameCoordinates,Original*%
%TF.FileFunction,Legend,Bot*%
%TF.FilePolarity,Positive*%
%FSLAX46Y46*%
G04 Gerber Fmt 4.6, Leading zero omitted, Abs format (unit mm)*
G04 Created by KiCad (PCBNEW (6.0.7)) date 2022-09-13 12:21:28*
%MOMM*%
%LPD*%
G01*
G04 APERTURE LIST*
%ADD10C,0.127000*%
%ADD11C,0.150000*%
%ADD12C,0.010000*%
%ADD13C,0.120000*%
G04 APERTURE END LIST*
D10*
X123855238Y-53445833D02*
X123552857Y-53445833D01*
X123915714Y-53627261D02*
X123704047Y-52992261D01*
X123492380Y-53627261D01*
X122857380Y-52992261D02*
X122464285Y-52992261D01*
X122675952Y-53234166D01*
X122585238Y-53234166D01*
X122524761Y-53264404D01*
X122494523Y-53294642D01*
X122464285Y-53355119D01*
X122464285Y-53506309D01*
X122494523Y-53566785D01*
X122524761Y-53597023D01*
X122585238Y-53627261D01*
X122766666Y-53627261D01*
X122827142Y-53597023D01*
X122857380Y-53566785D01*
X122101428Y-53264404D02*
X122161904Y-53234166D01*
X122192142Y-53203928D01*
X122222380Y-53143452D01*
X122222380Y-53113214D01*
X122192142Y-53052738D01*
X122161904Y-53022500D01*
X122101428Y-52992261D01*
X121980476Y-52992261D01*
X121920000Y-53022500D01*
X121889761Y-53052738D01*
X121859523Y-53113214D01*
X121859523Y-53143452D01*
X121889761Y-53203928D01*
X121920000Y-53234166D01*
X121980476Y-53264404D01*
X122101428Y-53264404D01*
X122161904Y-53294642D01*
X122192142Y-53324880D01*
X122222380Y-53385357D01*
X122222380Y-53506309D01*
X122192142Y-53566785D01*
X122161904Y-53597023D01*
X122101428Y-53627261D01*
X121980476Y-53627261D01*
X121920000Y-53597023D01*
X121889761Y-53566785D01*
X121859523Y-53506309D01*
X121859523Y-53385357D01*
X121889761Y-53324880D01*
X121920000Y-53294642D01*
X121980476Y-53264404D01*
X121133809Y-52962023D02*
X121678095Y-53778452D01*
X120952380Y-53052738D02*
X120922142Y-53022500D01*
X120861666Y-52992261D01*
X120710476Y-52992261D01*
X120650000Y-53022500D01*
X120619761Y-53052738D01*
X120589523Y-53113214D01*
X120589523Y-53173690D01*
X120619761Y-53264404D01*
X120982619Y-53627261D01*
X120589523Y-53627261D01*
X120347619Y-53052738D02*
X120317380Y-53022500D01*
X120256904Y-52992261D01*
X120105714Y-52992261D01*
X120045238Y-53022500D01*
X120015000Y-53052738D01*
X119984761Y-53113214D01*
X119984761Y-53173690D01*
X120015000Y-53264404D01*
X120377857Y-53627261D01*
X119984761Y-53627261D01*
D11*
%TO.C,D2*%
X100645742Y-67851918D02*
X99938636Y-67144811D01*
X99770277Y-67313170D01*
X99702933Y-67447857D01*
X99702933Y-67582544D01*
X99736605Y-67683559D01*
X99837620Y-67851918D01*
X99938636Y-67952933D01*
X100106994Y-68053949D01*
X100208010Y-68087620D01*
X100342697Y-68087620D01*
X100477384Y-68020277D01*
X100645742Y-67851918D01*
X99332544Y-67885590D02*
X99265200Y-67885590D01*
X99164185Y-67919261D01*
X98995826Y-68087620D01*
X98962155Y-68188636D01*
X98962155Y-68255979D01*
X98995826Y-68356994D01*
X99063170Y-68424338D01*
X99197857Y-68491681D01*
X100005979Y-68491681D01*
X99568246Y-68929414D01*
%TO.C,G\u002A\u002A\u002A*%
G36*
X119646229Y-47950604D02*
G01*
X119672724Y-47959322D01*
X119683458Y-47963135D01*
X119712452Y-47973542D01*
X119754714Y-47988788D01*
X119809376Y-48008558D01*
X119875567Y-48032535D01*
X119952418Y-48060402D01*
X120039059Y-48091843D01*
X120134623Y-48126541D01*
X120238238Y-48164179D01*
X120349036Y-48204442D01*
X120466147Y-48247013D01*
X120588702Y-48291574D01*
X120715832Y-48337811D01*
X120846666Y-48385405D01*
X120980337Y-48434041D01*
X121115973Y-48483402D01*
X121252707Y-48533172D01*
X121389669Y-48583034D01*
X121525988Y-48632671D01*
X121660797Y-48681768D01*
X121793225Y-48730007D01*
X121922403Y-48777072D01*
X122047462Y-48822646D01*
X122167532Y-48866414D01*
X122281744Y-48908057D01*
X122389229Y-48947261D01*
X122489117Y-48983708D01*
X122580538Y-49017083D01*
X122662625Y-49047067D01*
X122734506Y-49073346D01*
X122795313Y-49095602D01*
X122844176Y-49113518D01*
X122880227Y-49126779D01*
X122902595Y-49135068D01*
X122910411Y-49138068D01*
X122910481Y-49138244D01*
X122912796Y-49148465D01*
X122918096Y-49173684D01*
X122926188Y-49212931D01*
X122936877Y-49265236D01*
X122949968Y-49329629D01*
X122965268Y-49405138D01*
X122982583Y-49490795D01*
X123001718Y-49585629D01*
X123022479Y-49688670D01*
X123044672Y-49798948D01*
X123068102Y-49915492D01*
X123092576Y-50037333D01*
X123117899Y-50163500D01*
X123143876Y-50293022D01*
X123170315Y-50424931D01*
X123197020Y-50558256D01*
X123223798Y-50692025D01*
X123250453Y-50825271D01*
X123276793Y-50957021D01*
X123302622Y-51086307D01*
X123327747Y-51212157D01*
X123351973Y-51333602D01*
X123375106Y-51449671D01*
X123396952Y-51559395D01*
X123417316Y-51661803D01*
X123436005Y-51755925D01*
X123452824Y-51840791D01*
X123467579Y-51915430D01*
X123480076Y-51978873D01*
X123490121Y-52030149D01*
X123497518Y-52068288D01*
X123502075Y-52092320D01*
X123503597Y-52101275D01*
X123501762Y-52096392D01*
X123495393Y-52076917D01*
X123484746Y-52043510D01*
X123470115Y-51997110D01*
X123451790Y-51938654D01*
X123430065Y-51869081D01*
X123405231Y-51789328D01*
X123377580Y-51700333D01*
X123347405Y-51603035D01*
X123314996Y-51498372D01*
X123280647Y-51387281D01*
X123244649Y-51270701D01*
X123207295Y-51149569D01*
X122911451Y-50189595D01*
X121274768Y-49073923D01*
X121269287Y-49070187D01*
X121121232Y-48969258D01*
X120976696Y-48870719D01*
X120836270Y-48774972D01*
X120700545Y-48682422D01*
X120570110Y-48593471D01*
X120445556Y-48508521D01*
X120327475Y-48427976D01*
X120216456Y-48352239D01*
X120113091Y-48281713D01*
X120017969Y-48216800D01*
X119931682Y-48157904D01*
X119854819Y-48105428D01*
X119787972Y-48059775D01*
X119731731Y-48021347D01*
X119686687Y-47990548D01*
X119653430Y-47967781D01*
X119632550Y-47953448D01*
X119624639Y-47947953D01*
X119623236Y-47946484D01*
X119628850Y-47946116D01*
X119646229Y-47950604D01*
G37*
D12*
X119646229Y-47950604D02*
X119672724Y-47959322D01*
X119683458Y-47963135D01*
X119712452Y-47973542D01*
X119754714Y-47988788D01*
X119809376Y-48008558D01*
X119875567Y-48032535D01*
X119952418Y-48060402D01*
X120039059Y-48091843D01*
X120134623Y-48126541D01*
X120238238Y-48164179D01*
X120349036Y-48204442D01*
X120466147Y-48247013D01*
X120588702Y-48291574D01*
X120715832Y-48337811D01*
X120846666Y-48385405D01*
X120980337Y-48434041D01*
X121115973Y-48483402D01*
X121252707Y-48533172D01*
X121389669Y-48583034D01*
X121525988Y-48632671D01*
X121660797Y-48681768D01*
X121793225Y-48730007D01*
X121922403Y-48777072D01*
X122047462Y-48822646D01*
X122167532Y-48866414D01*
X122281744Y-48908057D01*
X122389229Y-48947261D01*
X122489117Y-48983708D01*
X122580538Y-49017083D01*
X122662625Y-49047067D01*
X122734506Y-49073346D01*
X122795313Y-49095602D01*
X122844176Y-49113518D01*
X122880227Y-49126779D01*
X122902595Y-49135068D01*
X122910411Y-49138068D01*
X122910481Y-49138244D01*
X122912796Y-49148465D01*
X122918096Y-49173684D01*
X122926188Y-49212931D01*
X122936877Y-49265236D01*
X122949968Y-49329629D01*
X122965268Y-49405138D01*
X122982583Y-49490795D01*
X123001718Y-49585629D01*
X123022479Y-49688670D01*
X123044672Y-49798948D01*
X123068102Y-49915492D01*
X123092576Y-50037333D01*
X123117899Y-50163500D01*
X123143876Y-50293022D01*
X123170315Y-50424931D01*
X123197020Y-50558256D01*
X123223798Y-50692025D01*
X123250453Y-50825271D01*
X123276793Y-50957021D01*
X123302622Y-51086307D01*
X123327747Y-51212157D01*
X123351973Y-51333602D01*
X123375106Y-51449671D01*
X123396952Y-51559395D01*
X123417316Y-51661803D01*
X123436005Y-51755925D01*
X123452824Y-51840791D01*
X123467579Y-51915430D01*
X123480076Y-51978873D01*
X123490121Y-52030149D01*
X123497518Y-52068288D01*
X123502075Y-52092320D01*
X123503597Y-52101275D01*
X123501762Y-52096392D01*
X123495393Y-52076917D01*
X123484746Y-52043510D01*
X123470115Y-51997110D01*
X123451790Y-51938654D01*
X123430065Y-51869081D01*
X123405231Y-51789328D01*
X123377580Y-51700333D01*
X123347405Y-51603035D01*
X123314996Y-51498372D01*
X123280647Y-51387281D01*
X123244649Y-51270701D01*
X123207295Y-51149569D01*
X122911451Y-50189595D01*
X121274768Y-49073923D01*
X121269287Y-49070187D01*
X121121232Y-48969258D01*
X120976696Y-48870719D01*
X120836270Y-48774972D01*
X120700545Y-48682422D01*
X120570110Y-48593471D01*
X120445556Y-48508521D01*
X120327475Y-48427976D01*
X120216456Y-48352239D01*
X120113091Y-48281713D01*
X120017969Y-48216800D01*
X119931682Y-48157904D01*
X119854819Y-48105428D01*
X119787972Y-48059775D01*
X119731731Y-48021347D01*
X119686687Y-47990548D01*
X119653430Y-47967781D01*
X119632550Y-47953448D01*
X119624639Y-47947953D01*
X119623236Y-47946484D01*
X119628850Y-47946116D01*
X119646229Y-47950604D01*
G36*
X119314832Y-48245528D02*
G01*
X119321575Y-48258404D01*
X119335187Y-48285035D01*
X119355338Y-48324766D01*
X119381701Y-48376942D01*
X119413947Y-48440908D01*
X119451748Y-48516011D01*
X119494773Y-48601595D01*
X119542696Y-48697006D01*
X119595187Y-48801589D01*
X119651918Y-48914690D01*
X119712560Y-49035653D01*
X119776785Y-49163825D01*
X119844263Y-49298550D01*
X119914667Y-49439175D01*
X119987667Y-49585043D01*
X120062936Y-49735502D01*
X120140144Y-49889896D01*
X120963967Y-51537607D01*
X121760222Y-51826780D01*
X121844695Y-51857470D01*
X121951718Y-51896387D01*
X122053901Y-51933583D01*
X122150186Y-51968672D01*
X122239513Y-52001264D01*
X122320825Y-52030975D01*
X122393063Y-52057415D01*
X122455168Y-52080199D01*
X122506082Y-52098939D01*
X122544746Y-52113247D01*
X122570101Y-52122737D01*
X122581089Y-52127021D01*
X122585182Y-52128919D01*
X122594039Y-52134140D01*
X122589293Y-52134354D01*
X122580651Y-52132425D01*
X122556704Y-52127097D01*
X122518380Y-52118576D01*
X122466526Y-52107051D01*
X122401989Y-52092709D01*
X122325615Y-52075739D01*
X122238251Y-52056329D01*
X122140743Y-52034666D01*
X122033938Y-52010940D01*
X121918682Y-51985337D01*
X121795823Y-51958047D01*
X121666206Y-51929256D01*
X121530679Y-51899154D01*
X121390088Y-51867928D01*
X121245279Y-51835767D01*
X121107336Y-51805114D01*
X120966867Y-51773863D01*
X120831545Y-51743720D01*
X120702207Y-51714874D01*
X120579687Y-51687512D01*
X120464823Y-51661821D01*
X120358452Y-51637990D01*
X120261409Y-51616206D01*
X120174531Y-51596657D01*
X120098655Y-51579530D01*
X120034616Y-51565015D01*
X119983252Y-51553297D01*
X119945398Y-51544565D01*
X119921891Y-51539007D01*
X119913568Y-51536811D01*
X119911963Y-51529649D01*
X119907573Y-51507225D01*
X119900589Y-51470447D01*
X119891180Y-51420240D01*
X119879513Y-51357527D01*
X119865756Y-51283234D01*
X119850078Y-51198283D01*
X119832647Y-51103599D01*
X119813632Y-51000106D01*
X119793200Y-50888728D01*
X119771520Y-50770388D01*
X119748760Y-50646012D01*
X119725088Y-50516522D01*
X119700672Y-50382844D01*
X119675681Y-50245900D01*
X119650284Y-50106616D01*
X119624647Y-49965914D01*
X119598939Y-49824720D01*
X119573330Y-49683957D01*
X119547986Y-49544548D01*
X119523076Y-49407419D01*
X119498769Y-49273494D01*
X119475232Y-49143695D01*
X119452634Y-49018947D01*
X119431142Y-48900175D01*
X119410927Y-48788302D01*
X119392154Y-48684253D01*
X119374994Y-48588950D01*
X119359613Y-48503319D01*
X119346180Y-48428284D01*
X119334864Y-48364767D01*
X119325833Y-48313695D01*
X119319254Y-48275989D01*
X119315297Y-48252575D01*
X119314129Y-48244377D01*
X119314832Y-48245528D01*
G37*
X119314832Y-48245528D02*
X119321575Y-48258404D01*
X119335187Y-48285035D01*
X119355338Y-48324766D01*
X119381701Y-48376942D01*
X119413947Y-48440908D01*
X119451748Y-48516011D01*
X119494773Y-48601595D01*
X119542696Y-48697006D01*
X119595187Y-48801589D01*
X119651918Y-48914690D01*
X119712560Y-49035653D01*
X119776785Y-49163825D01*
X119844263Y-49298550D01*
X119914667Y-49439175D01*
X119987667Y-49585043D01*
X120062936Y-49735502D01*
X120140144Y-49889896D01*
X120963967Y-51537607D01*
X121760222Y-51826780D01*
X121844695Y-51857470D01*
X121951718Y-51896387D01*
X122053901Y-51933583D01*
X122150186Y-51968672D01*
X122239513Y-52001264D01*
X122320825Y-52030975D01*
X122393063Y-52057415D01*
X122455168Y-52080199D01*
X122506082Y-52098939D01*
X122544746Y-52113247D01*
X122570101Y-52122737D01*
X122581089Y-52127021D01*
X122585182Y-52128919D01*
X122594039Y-52134140D01*
X122589293Y-52134354D01*
X122580651Y-52132425D01*
X122556704Y-52127097D01*
X122518380Y-52118576D01*
X122466526Y-52107051D01*
X122401989Y-52092709D01*
X122325615Y-52075739D01*
X122238251Y-52056329D01*
X122140743Y-52034666D01*
X122033938Y-52010940D01*
X121918682Y-51985337D01*
X121795823Y-51958047D01*
X121666206Y-51929256D01*
X121530679Y-51899154D01*
X121390088Y-51867928D01*
X121245279Y-51835767D01*
X121107336Y-51805114D01*
X120966867Y-51773863D01*
X120831545Y-51743720D01*
X120702207Y-51714874D01*
X120579687Y-51687512D01*
X120464823Y-51661821D01*
X120358452Y-51637990D01*
X120261409Y-51616206D01*
X120174531Y-51596657D01*
X120098655Y-51579530D01*
X120034616Y-51565015D01*
X119983252Y-51553297D01*
X119945398Y-51544565D01*
X119921891Y-51539007D01*
X119913568Y-51536811D01*
X119911963Y-51529649D01*
X119907573Y-51507225D01*
X119900589Y-51470447D01*
X119891180Y-51420240D01*
X119879513Y-51357527D01*
X119865756Y-51283234D01*
X119850078Y-51198283D01*
X119832647Y-51103599D01*
X119813632Y-51000106D01*
X119793200Y-50888728D01*
X119771520Y-50770388D01*
X119748760Y-50646012D01*
X119725088Y-50516522D01*
X119700672Y-50382844D01*
X119675681Y-50245900D01*
X119650284Y-50106616D01*
X119624647Y-49965914D01*
X119598939Y-49824720D01*
X119573330Y-49683957D01*
X119547986Y-49544548D01*
X119523076Y-49407419D01*
X119498769Y-49273494D01*
X119475232Y-49143695D01*
X119452634Y-49018947D01*
X119431142Y-48900175D01*
X119410927Y-48788302D01*
X119392154Y-48684253D01*
X119374994Y-48588950D01*
X119359613Y-48503319D01*
X119346180Y-48428284D01*
X119334864Y-48364767D01*
X119325833Y-48313695D01*
X119319254Y-48275989D01*
X119315297Y-48252575D01*
X119314129Y-48244377D01*
X119314832Y-48245528D01*
G36*
X119618267Y-48245081D02*
G01*
X119629564Y-48252509D01*
X119653489Y-48268793D01*
X119689436Y-48293512D01*
X119736802Y-48326247D01*
X119794983Y-48366574D01*
X119863374Y-48414074D01*
X119941371Y-48468326D01*
X120028371Y-48528907D01*
X120123767Y-48595398D01*
X120226957Y-48667377D01*
X120337337Y-48744423D01*
X120454301Y-48826114D01*
X120577246Y-48912031D01*
X120705567Y-49001751D01*
X120838661Y-49094853D01*
X120975922Y-49190918D01*
X121116747Y-49289522D01*
X122613030Y-50337451D01*
X122910868Y-51231673D01*
X122928321Y-51284085D01*
X122966561Y-51398994D01*
X123003177Y-51509128D01*
X123037847Y-51613507D01*
X123070245Y-51711150D01*
X123100046Y-51801076D01*
X123126927Y-51882304D01*
X123150563Y-51953853D01*
X123170629Y-52014742D01*
X123186801Y-52063990D01*
X123198754Y-52100616D01*
X123206163Y-52123638D01*
X123208706Y-52132077D01*
X123208705Y-52132223D01*
X123206654Y-52137999D01*
X123203011Y-52136486D01*
X123185559Y-52129069D01*
X123154475Y-52115798D01*
X123110619Y-52097043D01*
X123054850Y-52073171D01*
X122988026Y-52044550D01*
X122911008Y-52011549D01*
X122824653Y-51974536D01*
X122729821Y-51933880D01*
X122627372Y-51889947D01*
X122518163Y-51843107D01*
X122403055Y-51793727D01*
X122282907Y-51742177D01*
X122158576Y-51688823D01*
X121112549Y-51239906D01*
X120363453Y-49743803D01*
X120319707Y-49656416D01*
X120247242Y-49511595D01*
X120176986Y-49371101D01*
X120109282Y-49235624D01*
X120044473Y-49105854D01*
X119982901Y-48982480D01*
X119924910Y-48866191D01*
X119870843Y-48757677D01*
X119821043Y-48657627D01*
X119775852Y-48566730D01*
X119735615Y-48485676D01*
X119700673Y-48415154D01*
X119671371Y-48355853D01*
X119648050Y-48308462D01*
X119631055Y-48273672D01*
X119620727Y-48252170D01*
X119617411Y-48244648D01*
X119618267Y-48245081D01*
G37*
X119618267Y-48245081D02*
X119629564Y-48252509D01*
X119653489Y-48268793D01*
X119689436Y-48293512D01*
X119736802Y-48326247D01*
X119794983Y-48366574D01*
X119863374Y-48414074D01*
X119941371Y-48468326D01*
X120028371Y-48528907D01*
X120123767Y-48595398D01*
X120226957Y-48667377D01*
X120337337Y-48744423D01*
X120454301Y-48826114D01*
X120577246Y-48912031D01*
X120705567Y-49001751D01*
X120838661Y-49094853D01*
X120975922Y-49190918D01*
X121116747Y-49289522D01*
X122613030Y-50337451D01*
X122910868Y-51231673D01*
X122928321Y-51284085D01*
X122966561Y-51398994D01*
X123003177Y-51509128D01*
X123037847Y-51613507D01*
X123070245Y-51711150D01*
X123100046Y-51801076D01*
X123126927Y-51882304D01*
X123150563Y-51953853D01*
X123170629Y-52014742D01*
X123186801Y-52063990D01*
X123198754Y-52100616D01*
X123206163Y-52123638D01*
X123208706Y-52132077D01*
X123208705Y-52132223D01*
X123206654Y-52137999D01*
X123203011Y-52136486D01*
X123185559Y-52129069D01*
X123154475Y-52115798D01*
X123110619Y-52097043D01*
X123054850Y-52073171D01*
X122988026Y-52044550D01*
X122911008Y-52011549D01*
X122824653Y-51974536D01*
X122729821Y-51933880D01*
X122627372Y-51889947D01*
X122518163Y-51843107D01*
X122403055Y-51793727D01*
X122282907Y-51742177D01*
X122158576Y-51688823D01*
X121112549Y-51239906D01*
X120363453Y-49743803D01*
X120319707Y-49656416D01*
X120247242Y-49511595D01*
X120176986Y-49371101D01*
X120109282Y-49235624D01*
X120044473Y-49105854D01*
X119982901Y-48982480D01*
X119924910Y-48866191D01*
X119870843Y-48757677D01*
X119821043Y-48657627D01*
X119775852Y-48566730D01*
X119735615Y-48485676D01*
X119700673Y-48415154D01*
X119671371Y-48355853D01*
X119648050Y-48308462D01*
X119631055Y-48273672D01*
X119620727Y-48252170D01*
X119617411Y-48244648D01*
X119618267Y-48245081D01*
D13*
%TO.C,D2*%
X100857538Y-67905456D02*
X103084924Y-70132843D01*
X99655456Y-69107538D02*
X101882843Y-71334924D01*
X99655456Y-69107538D02*
X100857538Y-67905456D01*
%TD*%
M02*
