%TF.GenerationSoftware,KiCad,Pcbnew,(6.0.7)*%
%TF.CreationDate,2022-09-13T12:21:28-04:00*%
%TF.ProjectId,switch-board,73776974-6368-42d6-926f-6172642e6b69,A*%
%TF.SameCoordinates,Original*%
%TF.FileFunction,Copper,L1,Top*%
%TF.FilePolarity,Positive*%
%FSLAX46Y46*%
G04 Gerber Fmt 4.6, Leading zero omitted, Abs format (unit mm)*
G04 Created by KiCad (PCBNEW (6.0.7)) date 2022-09-13 12:21:28*
%MOMM*%
%LPD*%
G01*
G04 APERTURE LIST*
G04 Aperture macros list*
%AMRoundRect*
0 Rectangle with rounded corners*
0 $1 Rounding radius*
0 $2 $3 $4 $5 $6 $7 $8 $9 X,Y pos of 4 corners*
0 Add a 4 corners polygon primitive as box body*
4,1,4,$2,$3,$4,$5,$6,$7,$8,$9,$2,$3,0*
0 Add four circle primitives for the rounded corners*
1,1,$1+$1,$2,$3*
1,1,$1+$1,$4,$5*
1,1,$1+$1,$6,$7*
1,1,$1+$1,$8,$9*
0 Add four rect primitives between the rounded corners*
20,1,$1+$1,$2,$3,$4,$5,0*
20,1,$1+$1,$4,$5,$6,$7,0*
20,1,$1+$1,$6,$7,$8,$9,0*
20,1,$1+$1,$8,$9,$2,$3,0*%
G04 Aperture macros list end*
%TA.AperFunction,SMDPad,CuDef*%
%ADD10RoundRect,0.250000X1.450000X-0.537500X1.450000X0.537500X-1.450000X0.537500X-1.450000X-0.537500X0*%
%TD*%
%TA.AperFunction,SMDPad,CuDef*%
%ADD11RoundRect,0.250000X0.450000X-0.350000X0.450000X0.350000X-0.450000X0.350000X-0.450000X-0.350000X0*%
%TD*%
%TA.AperFunction,SMDPad,CuDef*%
%ADD12R,5.080000X2.540000*%
%TD*%
%TA.AperFunction,SMDPad,CuDef*%
%ADD13RoundRect,0.250000X-0.337500X-0.475000X0.337500X-0.475000X0.337500X0.475000X-0.337500X0.475000X0*%
%TD*%
%TA.AperFunction,SMDPad,CuDef*%
%ADD14R,2.540000X5.080000*%
%TD*%
%TA.AperFunction,SMDPad,CuDef*%
%ADD15RoundRect,0.250000X0.350000X0.450000X-0.350000X0.450000X-0.350000X-0.450000X0.350000X-0.450000X0*%
%TD*%
%TA.AperFunction,SMDPad,CuDef*%
%ADD16RoundRect,0.250000X-0.350000X-0.450000X0.350000X-0.450000X0.350000X0.450000X-0.350000X0.450000X0*%
%TD*%
%TA.AperFunction,ComponentPad*%
%ADD17C,8.600000*%
%TD*%
%TA.AperFunction,SMDPad,CuDef*%
%ADD18RoundRect,0.250000X0.537500X1.450000X-0.537500X1.450000X-0.537500X-1.450000X0.537500X-1.450000X0*%
%TD*%
%TA.AperFunction,SMDPad,CuDef*%
%ADD19R,0.800000X0.550000*%
%TD*%
%TA.AperFunction,SMDPad,CuDef*%
%ADD20RoundRect,0.250000X-0.537500X-1.450000X0.537500X-1.450000X0.537500X1.450000X-0.537500X1.450000X0*%
%TD*%
%TA.AperFunction,SMDPad,CuDef*%
%ADD21RoundRect,0.250000X-1.450000X0.537500X-1.450000X-0.537500X1.450000X-0.537500X1.450000X0.537500X0*%
%TD*%
%TA.AperFunction,SMDPad,CuDef*%
%ADD22R,1.500000X1.500000*%
%TD*%
%TA.AperFunction,ComponentPad*%
%ADD23C,2.250000*%
%TD*%
%TA.AperFunction,SMDPad,CuDef*%
%ADD24RoundRect,0.150000X-0.587500X-0.150000X0.587500X-0.150000X0.587500X0.150000X-0.587500X0.150000X0*%
%TD*%
%TA.AperFunction,ViaPad*%
%ADD25C,1.016000*%
%TD*%
%TA.AperFunction,ViaPad*%
%ADD26C,2.540000*%
%TD*%
%TA.AperFunction,Conductor*%
%ADD27C,0.635000*%
%TD*%
%TA.AperFunction,Conductor*%
%ADD28C,2.540000*%
%TD*%
%TA.AperFunction,Conductor*%
%ADD29C,0.254000*%
%TD*%
G04 APERTURE END LIST*
D10*
%TO.P,C2,1*%
%TO.N,GND*%
X120015000Y-67796500D03*
%TO.P,C2,2*%
%TO.N,Net-(J6-Pad1)*%
X120015000Y-63521500D03*
%TD*%
D11*
%TO.P,R4,1*%
%TO.N,GND*%
X94742000Y-80121000D03*
%TO.P,R4,2*%
%TO.N,Net-(Q1-Pad1)*%
X94742000Y-78121000D03*
%TD*%
D12*
%TO.P,J6,1,In*%
%TO.N,Net-(J6-Pad1)*%
X125095000Y-63500000D03*
%TO.P,J6,2,Ext*%
%TO.N,GND*%
X125095000Y-67310000D03*
X125095000Y-59690000D03*
%TD*%
D13*
%TO.P,C1,1*%
%TO.N,GND*%
X90402500Y-70977000D03*
%TO.P,C1,2*%
%TO.N,Net-(C1-Pad2)*%
X92477500Y-70977000D03*
%TD*%
D14*
%TO.P,J4,1,In*%
%TO.N,Net-(C4-Pad2)*%
X107950000Y-46990000D03*
%TO.P,J4,2,Ext*%
%TO.N,GND*%
X104140000Y-46990000D03*
X111760000Y-46990000D03*
%TD*%
D15*
%TO.P,R3,1*%
%TO.N,Net-(D2-Pad2)*%
X98790000Y-78089000D03*
%TO.P,R3,2*%
%TO.N,Net-(D1-Pad1)*%
X96790000Y-78089000D03*
%TD*%
D16*
%TO.P,R1,1*%
%TO.N,GND*%
X93742000Y-76057000D03*
%TO.P,R1,2*%
%TO.N,Net-(D1-Pad2)*%
X95742000Y-76057000D03*
%TD*%
D17*
%TO.P,H1,1,1*%
%TO.N,GND*%
X119380000Y-74930000D03*
%TD*%
D18*
%TO.P,C3,1*%
%TO.N,GND*%
X112119500Y-74930000D03*
%TO.P,C3,2*%
%TO.N,Net-(C3-Pad2)*%
X107844500Y-74930000D03*
%TD*%
D19*
%TO.P,D1,1,RK*%
%TO.N,Net-(D1-Pad1)*%
X95742000Y-74475000D03*
%TO.P,D1,2,GK*%
%TO.N,Net-(D1-Pad2)*%
X95742000Y-73575000D03*
%TO.P,D1,3,BK*%
%TO.N,unconnected-(D1-Pad3)*%
X93742000Y-73575000D03*
%TO.P,D1,4,A*%
%TO.N,Net-(C1-Pad2)*%
X93742000Y-74475000D03*
%TD*%
D20*
%TO.P,C4,1*%
%TO.N,GND*%
X103780500Y-52070000D03*
%TO.P,C4,2*%
%TO.N,Net-(C4-Pad2)*%
X108055500Y-52070000D03*
%TD*%
D14*
%TO.P,J3,2,Ext*%
%TO.N,GND*%
X104140000Y-80010000D03*
X111760000Y-80010000D03*
%TO.P,J3,1,In*%
%TO.N,Net-(C3-Pad2)*%
X107950000Y-80010000D03*
%TD*%
D21*
%TO.P,C5,1*%
%TO.N,GND*%
X96520000Y-59330500D03*
%TO.P,C5,2*%
%TO.N,Net-(J6-Pad1)*%
X96520000Y-63605500D03*
%TD*%
D22*
%TO.P,J1,1,Pin_1*%
%TO.N,Net-(C1-Pad2)*%
X90424000Y-73771000D03*
%TD*%
%TO.P,J2,1,Pin_1*%
%TO.N,Net-(J2-Pad1)*%
X90424000Y-78851000D03*
%TD*%
D23*
%TO.P,K1,1*%
%TO.N,Net-(D2-Pad2)*%
X101974948Y-74778353D03*
%TO.P,K1,2*%
%TO.N,Net-(C3-Pad2)*%
X112581549Y-64171751D03*
X107278249Y-58868451D03*
%TO.P,K1,3*%
%TO.N,Net-(C4-Pad2)*%
X116117083Y-60636218D03*
X110813782Y-55332917D03*
%TO.P,K1,4*%
%TO.N,Net-(J6-Pad1)*%
X114349316Y-51797383D03*
X119652617Y-57100684D03*
%TO.P,K1,5*%
%TO.N,Net-(C1-Pad2)*%
X96671647Y-69475052D03*
%TD*%
D11*
%TO.P,R2,1*%
%TO.N,Net-(J2-Pad1)*%
X92710000Y-80105000D03*
%TO.P,R2,2*%
%TO.N,Net-(Q1-Pad1)*%
X92710000Y-78105000D03*
%TD*%
D12*
%TO.P,J5,1,In*%
%TO.N,Net-(J6-Pad1)*%
X91440000Y-63500000D03*
%TO.P,J5,2,Ext*%
%TO.N,GND*%
X91440000Y-59690000D03*
X91440000Y-67310000D03*
%TD*%
D22*
%TO.P,J7,1,Pin_1*%
%TO.N,GND*%
X90424000Y-76311000D03*
%TD*%
D24*
%TO.P,Q1,1,G*%
%TO.N,Net-(Q1-Pad1)*%
X96852500Y-79679000D03*
%TO.P,Q1,2,S*%
%TO.N,GND*%
X96852500Y-81579000D03*
%TO.P,Q1,3,D*%
%TO.N,Net-(D2-Pad2)*%
X98727500Y-80629000D03*
%TD*%
D17*
%TO.P,H2,1,1*%
%TO.N,GND*%
X96520000Y-52070000D03*
%TD*%
D25*
%TO.N,GND*%
X90170000Y-81280000D03*
X121920000Y-69850000D03*
X114300000Y-77470000D03*
X123825000Y-57150000D03*
X93980000Y-57150000D03*
X101600000Y-49530000D03*
X114300000Y-47625000D03*
X101600000Y-47625000D03*
X92075000Y-57150000D03*
X114300000Y-79375000D03*
X123825000Y-69850000D03*
X114935000Y-71120000D03*
D26*
%TO.N,Net-(J6-Pad1)*%
X102235000Y-63500000D03*
D25*
%TO.N,GND*%
X90805000Y-52070000D03*
X100330000Y-46355000D03*
X90805000Y-48260000D03*
X90805000Y-53975000D03*
X125095000Y-50165000D03*
X115570000Y-46355000D03*
X100965000Y-78740000D03*
X102235000Y-55880000D03*
X125095000Y-71120000D03*
X97790000Y-73025000D03*
X102235000Y-67310000D03*
X106045000Y-55880000D03*
X117475000Y-80645000D03*
X92710000Y-46355000D03*
X104140000Y-59690000D03*
X123190000Y-80645000D03*
X121285000Y-80645000D03*
X123190000Y-46355000D03*
X99695000Y-73025000D03*
X100330000Y-59690000D03*
X96520000Y-46355000D03*
X125095000Y-46355000D03*
X100965000Y-80645000D03*
X125095000Y-55880000D03*
X90805000Y-55880000D03*
X102235000Y-59690000D03*
X104140000Y-55880000D03*
X107950000Y-67310000D03*
X104140000Y-73025000D03*
X125095000Y-80645000D03*
X98425000Y-46355000D03*
X90805000Y-46355000D03*
X90805000Y-50165000D03*
X100330000Y-57785000D03*
X94615000Y-46355000D03*
X119380000Y-46355000D03*
X119380000Y-80645000D03*
X115570000Y-80645000D03*
X104140000Y-57785000D03*
X125095000Y-53975000D03*
X125095000Y-76835000D03*
X106045000Y-67310000D03*
X125095000Y-73025000D03*
X116205000Y-67310000D03*
X99695000Y-71120000D03*
X116205000Y-69215000D03*
X125095000Y-52070000D03*
X106045000Y-69215000D03*
X104140000Y-67310000D03*
X99060000Y-67310000D03*
X117475000Y-46355000D03*
X104140000Y-69215000D03*
X99695000Y-74930000D03*
X116205000Y-65405000D03*
X125095000Y-48260000D03*
X125095000Y-74930000D03*
X121285000Y-46355000D03*
X125095000Y-78740000D03*
X102235000Y-57785000D03*
X104140000Y-71120000D03*
%TD*%
D27*
%TO.N,Net-(D2-Pad2)*%
X98790000Y-78089000D02*
X98790000Y-77963301D01*
X98790000Y-77963301D02*
X101974948Y-74778353D01*
%TO.N,Net-(C1-Pad2)*%
X95169699Y-70977000D02*
X96671647Y-69475052D01*
X92477500Y-70977000D02*
X95169699Y-70977000D01*
D28*
%TO.N,Net-(J6-Pad1)*%
X91440000Y-63500000D02*
X102235000Y-63500000D01*
%TO.N,Net-(C4-Pad2)*%
X110813782Y-55332917D02*
X116117083Y-60636218D01*
%TO.N,Net-(C3-Pad2)*%
X107278249Y-58868451D02*
X112581549Y-64171751D01*
D27*
%TO.N,GND*%
X90678000Y-76057000D02*
X90424000Y-76311000D01*
%TO.N,Net-(C1-Pad2)*%
X92477500Y-71717500D02*
X90424000Y-73771000D01*
D29*
X91128000Y-74475000D02*
X90424000Y-73771000D01*
X93742000Y-74475000D02*
X91128000Y-74475000D01*
%TO.N,Net-(Q1-Pad1)*%
X94704500Y-78105000D02*
X94742000Y-78067500D01*
X96852500Y-79679000D02*
X96353500Y-79679000D01*
X92710000Y-78105000D02*
X94704500Y-78105000D01*
X96353500Y-79679000D02*
X94742000Y-78067500D01*
D28*
%TO.N,Net-(C3-Pad2)*%
X112581549Y-68393451D02*
X107950000Y-73025000D01*
X107950000Y-73025000D02*
X107950000Y-80010000D01*
X112581549Y-64171751D02*
X112581549Y-68393451D01*
D29*
%TO.N,Net-(D1-Pad1)*%
X96790000Y-78089000D02*
X96790000Y-74803000D01*
X96790000Y-74803000D02*
X96462000Y-74475000D01*
X96462000Y-74475000D02*
X95742000Y-74475000D01*
%TO.N,Net-(D1-Pad2)*%
X94742000Y-73921000D02*
X94742000Y-75803000D01*
X95088000Y-73575000D02*
X94742000Y-73921000D01*
X94742000Y-75803000D02*
X94996000Y-76057000D01*
X94996000Y-76057000D02*
X95742000Y-76057000D01*
X95742000Y-73575000D02*
X95088000Y-73575000D01*
D27*
%TO.N,Net-(D2-Pad2)*%
X98727500Y-78151500D02*
X98790000Y-78089000D01*
X98727500Y-80629000D02*
X98727500Y-78151500D01*
D28*
%TO.N,Net-(C4-Pad2)*%
X107950000Y-52469135D02*
X110813782Y-55332917D01*
X107950000Y-46990000D02*
X107950000Y-52469135D01*
%TO.N,Net-(J6-Pad1)*%
X124460000Y-63500000D02*
X120015000Y-63500000D01*
X119652617Y-57100684D02*
X116840000Y-54288067D01*
X120015000Y-63500000D02*
X119652617Y-63137617D01*
X119652617Y-63137617D02*
X119652617Y-57100684D01*
X116840000Y-54288067D02*
X114349316Y-51797383D01*
D29*
%TO.N,Net-(J2-Pad1)*%
X91424000Y-80105000D02*
X90424000Y-79105000D01*
X92710000Y-80105000D02*
X91424000Y-80105000D01*
X90424000Y-79105000D02*
X90424000Y-78851000D01*
%TD*%
%TA.AperFunction,Conductor*%
%TO.N,GND*%
G36*
X115067494Y-62952695D02*
G01*
X115106134Y-62972383D01*
X115406904Y-63080668D01*
X115718876Y-63150401D01*
X116037126Y-63180484D01*
X116041078Y-63180360D01*
X116041084Y-63180360D01*
X116210758Y-63175027D01*
X116356638Y-63170443D01*
X116360545Y-63169824D01*
X116360547Y-63169824D01*
X116668466Y-63121055D01*
X116668471Y-63121054D01*
X116672372Y-63120436D01*
X116883347Y-63059142D01*
X116954343Y-63059345D01*
X117013960Y-63097899D01*
X117043268Y-63162564D01*
X117044500Y-63180139D01*
X117044501Y-63654557D01*
X117044501Y-64128012D01*
X117044662Y-64130253D01*
X117044662Y-64130264D01*
X117050639Y-64213648D01*
X117055149Y-64276573D01*
X117056207Y-64281231D01*
X117056208Y-64281236D01*
X117075182Y-64364749D01*
X117109357Y-64515171D01*
X117201015Y-64742033D01*
X117327765Y-64951322D01*
X117486346Y-65137654D01*
X117672678Y-65296235D01*
X117677010Y-65298859D01*
X117677012Y-65298860D01*
X117877639Y-65420364D01*
X117881967Y-65422985D01*
X118108829Y-65514643D01*
X118347427Y-65568851D01*
X118352192Y-65569193D01*
X118352195Y-65569193D01*
X118493737Y-65579339D01*
X118493745Y-65579339D01*
X118495987Y-65579500D01*
X118513891Y-65579500D01*
X118581405Y-65599115D01*
X118618338Y-65622553D01*
X118621645Y-65624726D01*
X118711639Y-65685885D01*
X118719223Y-65691039D01*
X118722748Y-65692835D01*
X118749600Y-65706517D01*
X118759899Y-65712391D01*
X118788685Y-65730659D01*
X118895415Y-65780882D01*
X118898916Y-65782597D01*
X119004052Y-65836166D01*
X119007784Y-65837509D01*
X119007785Y-65837510D01*
X119036115Y-65847709D01*
X119047085Y-65852252D01*
X119074348Y-65865082D01*
X119074356Y-65865085D01*
X119077930Y-65866767D01*
X119190124Y-65903221D01*
X119193786Y-65904474D01*
X119304822Y-65944450D01*
X119308674Y-65945311D01*
X119308688Y-65945315D01*
X119338078Y-65951883D01*
X119349532Y-65955016D01*
X119361276Y-65958832D01*
X119378180Y-65964325D01*
X119378185Y-65964326D01*
X119381954Y-65965551D01*
X119385846Y-65966293D01*
X119385852Y-65966295D01*
X119456644Y-65979799D01*
X119497815Y-65987653D01*
X119501673Y-65988451D01*
X119616793Y-66014183D01*
X119650722Y-66017390D01*
X119662473Y-66019063D01*
X119695961Y-66025451D01*
X119770820Y-66030161D01*
X119813688Y-66032858D01*
X119817633Y-66033168D01*
X119864659Y-66037613D01*
X119935043Y-66044266D01*
X119938995Y-66044142D01*
X119939001Y-66044142D01*
X120052907Y-66040562D01*
X120056865Y-66040500D01*
X125603500Y-66040500D01*
X125671621Y-66060502D01*
X125718114Y-66114158D01*
X125729500Y-66166500D01*
X125729500Y-81153500D01*
X125709498Y-81221621D01*
X125655842Y-81268114D01*
X125603500Y-81279500D01*
X110616500Y-81279500D01*
X110548379Y-81259498D01*
X110501886Y-81205842D01*
X110490500Y-81153500D01*
X110490500Y-74129499D01*
X110510502Y-74061378D01*
X110527405Y-74040404D01*
X114348322Y-70219487D01*
X114351164Y-70216732D01*
X114434268Y-70138692D01*
X114437155Y-70135981D01*
X114512346Y-70045090D01*
X114514906Y-70042093D01*
X114515747Y-70041139D01*
X114592907Y-69953620D01*
X114612075Y-69925415D01*
X114619195Y-69915933D01*
X114638398Y-69892721D01*
X114638400Y-69892718D01*
X114640920Y-69889672D01*
X114704111Y-69790100D01*
X114706275Y-69786806D01*
X114770359Y-69692508D01*
X114770360Y-69692507D01*
X114772588Y-69689228D01*
X114788067Y-69658850D01*
X114793940Y-69648552D01*
X114812208Y-69619766D01*
X114862435Y-69513029D01*
X114864169Y-69509489D01*
X114879699Y-69479010D01*
X114917714Y-69404400D01*
X114923259Y-69389000D01*
X114929260Y-69372331D01*
X114933803Y-69361364D01*
X114946630Y-69334104D01*
X114948316Y-69330521D01*
X114984776Y-69218309D01*
X114986029Y-69214647D01*
X115025998Y-69103630D01*
X115033432Y-69070370D01*
X115036565Y-69058920D01*
X115045876Y-69030263D01*
X115047100Y-69026497D01*
X115069206Y-68910612D01*
X115070009Y-68906736D01*
X115094868Y-68795526D01*
X115094869Y-68795517D01*
X115095732Y-68791658D01*
X115098939Y-68757729D01*
X115100612Y-68745977D01*
X115106256Y-68716390D01*
X115107000Y-68712490D01*
X115114407Y-68594763D01*
X115114717Y-68590818D01*
X115125442Y-68477351D01*
X115125815Y-68473408D01*
X115122111Y-68355544D01*
X115122049Y-68351586D01*
X115122049Y-64213648D01*
X115122111Y-64209690D01*
X115125692Y-64095752D01*
X115125692Y-64095746D01*
X115125816Y-64091794D01*
X115115326Y-63980822D01*
X115114716Y-63974364D01*
X115114406Y-63970419D01*
X115107249Y-63856673D01*
X115107000Y-63852712D01*
X115100612Y-63819226D01*
X115098939Y-63807472D01*
X115096104Y-63777480D01*
X115095732Y-63773544D01*
X115070000Y-63658424D01*
X115069200Y-63654557D01*
X115047844Y-63542603D01*
X115047842Y-63542597D01*
X115047100Y-63538705D01*
X115036565Y-63506283D01*
X115033432Y-63494829D01*
X115026864Y-63465439D01*
X115026860Y-63465425D01*
X115025999Y-63461573D01*
X114986023Y-63350537D01*
X114984770Y-63346875D01*
X114948316Y-63234681D01*
X114946634Y-63231107D01*
X114946631Y-63231099D01*
X114933801Y-63203836D01*
X114929258Y-63192866D01*
X114919059Y-63164536D01*
X114919058Y-63164535D01*
X114917715Y-63160803D01*
X114898029Y-63122166D01*
X114884925Y-63052389D01*
X114911626Y-62986604D01*
X114969654Y-62945699D01*
X115040585Y-62942659D01*
X115067494Y-62952695D01*
G37*
%TD.AperFunction*%
%TA.AperFunction,Conductor*%
G36*
X105351621Y-45740502D02*
G01*
X105398114Y-45794158D01*
X105409500Y-45846500D01*
X105409500Y-52427270D01*
X105409438Y-52431228D01*
X105405734Y-52549092D01*
X105406107Y-52553035D01*
X105416832Y-52666502D01*
X105417142Y-52670447D01*
X105424549Y-52788174D01*
X105425293Y-52792074D01*
X105430937Y-52821661D01*
X105432610Y-52833413D01*
X105435817Y-52867342D01*
X105436679Y-52871198D01*
X105461547Y-52982453D01*
X105462347Y-52986320D01*
X105484449Y-53102181D01*
X105485674Y-53105950D01*
X105485675Y-53105955D01*
X105494983Y-53134599D01*
X105498117Y-53146057D01*
X105504685Y-53175447D01*
X105504689Y-53175461D01*
X105505550Y-53179313D01*
X105545526Y-53290349D01*
X105546779Y-53294011D01*
X105583233Y-53406205D01*
X105584915Y-53409779D01*
X105584918Y-53409787D01*
X105597748Y-53437050D01*
X105602291Y-53448020D01*
X105613834Y-53480083D01*
X105667403Y-53585219D01*
X105669118Y-53588720D01*
X105719341Y-53695450D01*
X105737609Y-53724236D01*
X105743482Y-53734534D01*
X105758961Y-53764912D01*
X105761189Y-53768191D01*
X105761190Y-53768192D01*
X105825274Y-53862490D01*
X105827438Y-53865784D01*
X105890629Y-53965356D01*
X105893149Y-53968402D01*
X105893151Y-53968405D01*
X105912354Y-53991617D01*
X105919474Y-54001099D01*
X105938642Y-54029304D01*
X106016643Y-54117777D01*
X106019203Y-54120774D01*
X106094394Y-54211665D01*
X106097281Y-54214376D01*
X106180385Y-54292416D01*
X106183227Y-54295171D01*
X106239864Y-54351808D01*
X106258544Y-54375631D01*
X106280765Y-54412322D01*
X106439346Y-54598654D01*
X106625678Y-54757235D01*
X106662368Y-54779455D01*
X106686192Y-54798136D01*
X108098553Y-56210497D01*
X108132579Y-56272809D01*
X108127514Y-56343624D01*
X108084967Y-56400460D01*
X108018447Y-56425271D01*
X107981972Y-56422558D01*
X107680312Y-56355130D01*
X107680313Y-56355130D01*
X107676456Y-56354268D01*
X107358206Y-56324185D01*
X107354254Y-56324309D01*
X107354248Y-56324309D01*
X107184574Y-56329642D01*
X107038694Y-56334226D01*
X107034787Y-56334845D01*
X107034785Y-56334845D01*
X106726866Y-56383614D01*
X106726861Y-56383615D01*
X106722960Y-56384233D01*
X106719160Y-56385337D01*
X106419786Y-56472312D01*
X106419780Y-56472314D01*
X106415984Y-56473417D01*
X106412358Y-56474986D01*
X106412350Y-56474989D01*
X106126245Y-56598798D01*
X106126242Y-56598800D01*
X106122606Y-56600373D01*
X105847452Y-56763099D01*
X105844315Y-56765532D01*
X105844314Y-56765533D01*
X105823543Y-56781645D01*
X105594865Y-56959026D01*
X105368824Y-57185067D01*
X105172897Y-57437654D01*
X105010171Y-57712808D01*
X105008598Y-57716444D01*
X105008596Y-57716447D01*
X104884787Y-58002552D01*
X104884784Y-58002560D01*
X104883215Y-58006186D01*
X104794031Y-58313162D01*
X104744024Y-58628896D01*
X104733983Y-58948408D01*
X104764066Y-59266658D01*
X104833799Y-59578629D01*
X104942083Y-59879399D01*
X105087210Y-60164228D01*
X105266891Y-60428620D01*
X105425390Y-60608401D01*
X105426801Y-60609812D01*
X110004144Y-65187156D01*
X110038170Y-65249468D01*
X110041049Y-65276251D01*
X110041049Y-67288952D01*
X110021047Y-67357073D01*
X110004144Y-67378047D01*
X106183227Y-71198964D01*
X106180386Y-71201718D01*
X106094394Y-71282470D01*
X106091870Y-71285521D01*
X106019215Y-71373347D01*
X106016655Y-71376344D01*
X105938642Y-71464831D01*
X105919474Y-71493036D01*
X105912358Y-71502513D01*
X105890629Y-71528779D01*
X105850130Y-71592595D01*
X105827447Y-71628338D01*
X105825274Y-71631645D01*
X105761190Y-71725943D01*
X105758961Y-71729223D01*
X105757165Y-71732748D01*
X105743483Y-71759600D01*
X105737609Y-71769899D01*
X105719341Y-71798685D01*
X105717653Y-71802272D01*
X105717652Y-71802274D01*
X105669125Y-71905400D01*
X105667403Y-71908916D01*
X105613834Y-72014052D01*
X105612491Y-72017784D01*
X105612490Y-72017785D01*
X105602291Y-72046115D01*
X105597748Y-72057085D01*
X105584918Y-72084348D01*
X105584915Y-72084356D01*
X105583233Y-72087930D01*
X105546779Y-72200124D01*
X105545526Y-72203786D01*
X105505550Y-72314822D01*
X105504689Y-72318674D01*
X105504685Y-72318688D01*
X105498117Y-72348078D01*
X105494984Y-72359532D01*
X105484449Y-72391954D01*
X105464402Y-72497046D01*
X105462349Y-72507806D01*
X105461549Y-72511673D01*
X105435817Y-72626793D01*
X105435445Y-72630729D01*
X105432610Y-72660721D01*
X105430937Y-72672473D01*
X105424549Y-72705961D01*
X105419839Y-72780820D01*
X105417142Y-72823688D01*
X105416832Y-72827633D01*
X105412432Y-72874184D01*
X105405734Y-72945043D01*
X105405858Y-72948995D01*
X105405858Y-72949001D01*
X105409438Y-73062907D01*
X105409500Y-73066865D01*
X105409500Y-81153500D01*
X105389498Y-81221621D01*
X105335842Y-81268114D01*
X105283500Y-81279500D01*
X104775000Y-81279500D01*
X104775000Y-66675000D01*
X90170500Y-66675000D01*
X90170500Y-66166500D01*
X90190502Y-66098379D01*
X90244158Y-66051886D01*
X90296500Y-66040500D01*
X102394835Y-66040500D01*
X102470284Y-66030969D01*
X102478139Y-66030226D01*
X102554039Y-66025451D01*
X102628743Y-66011201D01*
X102636544Y-66009965D01*
X102711983Y-66000435D01*
X102738756Y-65993561D01*
X102785636Y-65981525D01*
X102793359Y-65979799D01*
X102828754Y-65973046D01*
X102868046Y-65965551D01*
X102871819Y-65964325D01*
X102871823Y-65964324D01*
X102940360Y-65942055D01*
X102947961Y-65939847D01*
X103017759Y-65921926D01*
X103017777Y-65921920D01*
X103021610Y-65920936D01*
X103092302Y-65892947D01*
X103099749Y-65890266D01*
X103168312Y-65867988D01*
X103168311Y-65867988D01*
X103172070Y-65866767D01*
X103240870Y-65834392D01*
X103248125Y-65831253D01*
X103315157Y-65804713D01*
X103315162Y-65804711D01*
X103318831Y-65803258D01*
X103322286Y-65801358D01*
X103322300Y-65801352D01*
X103385470Y-65766624D01*
X103392521Y-65763031D01*
X103461315Y-65730659D01*
X103525527Y-65689909D01*
X103532331Y-65685885D01*
X103595480Y-65651169D01*
X103595485Y-65651166D01*
X103598959Y-65649256D01*
X103660475Y-65604562D01*
X103667022Y-65600113D01*
X103727877Y-65561493D01*
X103731221Y-65559371D01*
X103789813Y-65510899D01*
X103796064Y-65506051D01*
X103854373Y-65463687D01*
X103854374Y-65463686D01*
X103857577Y-65461359D01*
X103913007Y-65409306D01*
X103918944Y-65404072D01*
X103974479Y-65358130D01*
X103977530Y-65355606D01*
X104029595Y-65300162D01*
X104035162Y-65294595D01*
X104090606Y-65242530D01*
X104139075Y-65183941D01*
X104144308Y-65178005D01*
X104193648Y-65125464D01*
X104193649Y-65125463D01*
X104196359Y-65122577D01*
X104241053Y-65061061D01*
X104245902Y-65054810D01*
X104294371Y-64996221D01*
X104335113Y-64932022D01*
X104339562Y-64925475D01*
X104381925Y-64867167D01*
X104384256Y-64863959D01*
X104420885Y-64797331D01*
X104424915Y-64790516D01*
X104463540Y-64729654D01*
X104465659Y-64726315D01*
X104498034Y-64657516D01*
X104501624Y-64650470D01*
X104536352Y-64587300D01*
X104536358Y-64587286D01*
X104538258Y-64583831D01*
X104566253Y-64513125D01*
X104569396Y-64505862D01*
X104601767Y-64437070D01*
X104625266Y-64364749D01*
X104627947Y-64357303D01*
X104654476Y-64290297D01*
X104655936Y-64286610D01*
X104656920Y-64282777D01*
X104656926Y-64282759D01*
X104674847Y-64212961D01*
X104677055Y-64205360D01*
X104699324Y-64136823D01*
X104699325Y-64136819D01*
X104700551Y-64133046D01*
X104714799Y-64058359D01*
X104716525Y-64050636D01*
X104734449Y-63980822D01*
X104735435Y-63976983D01*
X104744965Y-63901544D01*
X104746202Y-63893734D01*
X104753272Y-63856673D01*
X104760451Y-63819039D01*
X104765226Y-63743139D01*
X104765970Y-63735269D01*
X104775500Y-63659835D01*
X104775500Y-63583793D01*
X104775749Y-63575881D01*
X104780274Y-63503958D01*
X104780523Y-63500000D01*
X104775749Y-63424119D01*
X104775500Y-63416207D01*
X104775500Y-63340165D01*
X104765969Y-63264716D01*
X104765225Y-63256849D01*
X104763831Y-63234681D01*
X104760451Y-63180961D01*
X104746201Y-63106257D01*
X104744964Y-63098448D01*
X104739999Y-63059142D01*
X104735435Y-63023017D01*
X104726086Y-62986604D01*
X104716525Y-62949364D01*
X104714799Y-62941641D01*
X104708047Y-62906246D01*
X104700551Y-62866954D01*
X104699324Y-62863177D01*
X104677055Y-62794640D01*
X104674847Y-62787039D01*
X104656926Y-62717241D01*
X104656920Y-62717223D01*
X104655936Y-62713390D01*
X104627947Y-62642697D01*
X104625266Y-62635251D01*
X104602988Y-62566688D01*
X104601767Y-62562930D01*
X104569392Y-62494130D01*
X104566253Y-62486875D01*
X104539713Y-62419843D01*
X104539711Y-62419838D01*
X104538258Y-62416169D01*
X104536358Y-62412714D01*
X104536352Y-62412700D01*
X104501624Y-62349530D01*
X104498031Y-62342479D01*
X104465659Y-62273685D01*
X104424909Y-62209473D01*
X104420885Y-62202669D01*
X104386169Y-62139520D01*
X104386166Y-62139515D01*
X104384256Y-62136041D01*
X104339562Y-62074525D01*
X104335113Y-62067978D01*
X104296493Y-62007123D01*
X104294371Y-62003779D01*
X104245899Y-61945187D01*
X104241051Y-61938936D01*
X104198687Y-61880627D01*
X104198686Y-61880626D01*
X104196359Y-61877423D01*
X104144306Y-61821993D01*
X104139072Y-61816056D01*
X104093130Y-61760521D01*
X104090606Y-61757470D01*
X104035162Y-61705405D01*
X104029595Y-61699838D01*
X103977530Y-61644394D01*
X103918941Y-61595925D01*
X103913005Y-61590692D01*
X103860464Y-61541352D01*
X103860463Y-61541351D01*
X103857577Y-61538641D01*
X103796061Y-61493947D01*
X103789810Y-61489098D01*
X103731221Y-61440629D01*
X103667022Y-61399887D01*
X103660475Y-61395438D01*
X103602167Y-61353075D01*
X103598959Y-61350744D01*
X103595485Y-61348834D01*
X103595480Y-61348831D01*
X103532331Y-61314115D01*
X103525527Y-61310091D01*
X103461315Y-61269341D01*
X103392516Y-61236966D01*
X103385470Y-61233376D01*
X103322300Y-61198648D01*
X103322286Y-61198642D01*
X103318831Y-61196742D01*
X103315162Y-61195289D01*
X103315157Y-61195287D01*
X103248125Y-61168747D01*
X103240870Y-61165608D01*
X103172070Y-61133233D01*
X103099750Y-61109734D01*
X103092303Y-61107053D01*
X103086499Y-61104755D01*
X103021610Y-61079064D01*
X103017777Y-61078080D01*
X103017759Y-61078074D01*
X102947961Y-61060153D01*
X102940360Y-61057945D01*
X102871823Y-61035676D01*
X102871819Y-61035675D01*
X102868046Y-61034449D01*
X102828754Y-61026953D01*
X102793359Y-61020201D01*
X102785636Y-61018475D01*
X102738756Y-61006439D01*
X102711983Y-60999565D01*
X102636544Y-60990035D01*
X102628743Y-60988799D01*
X102554039Y-60974549D01*
X102478139Y-60969774D01*
X102470284Y-60969031D01*
X102394835Y-60959500D01*
X90296500Y-60959500D01*
X90228379Y-60939498D01*
X90181886Y-60885842D01*
X90170500Y-60833500D01*
X90170500Y-45846500D01*
X90190502Y-45778379D01*
X90244158Y-45731886D01*
X90296500Y-45720500D01*
X105283500Y-45720500D01*
X105351621Y-45740502D01*
G37*
%TD.AperFunction*%
%TA.AperFunction,Conductor*%
G36*
X125671621Y-45740502D02*
G01*
X125718114Y-45794158D01*
X125729500Y-45846500D01*
X125729500Y-60833500D01*
X125709498Y-60901621D01*
X125655842Y-60948114D01*
X125603500Y-60959500D01*
X122319117Y-60959500D01*
X122250996Y-60939498D01*
X122204503Y-60885842D01*
X122193117Y-60833500D01*
X122193117Y-57142549D01*
X122193179Y-57138591D01*
X122196759Y-57024685D01*
X122196759Y-57024679D01*
X122196883Y-57020727D01*
X122185785Y-56903317D01*
X122185475Y-56899372D01*
X122178317Y-56785608D01*
X122178068Y-56781645D01*
X122171680Y-56748157D01*
X122170007Y-56736405D01*
X122167172Y-56706413D01*
X122166800Y-56702477D01*
X122165939Y-56698626D01*
X122165936Y-56698606D01*
X122141070Y-56587364D01*
X122140267Y-56583487D01*
X122118911Y-56471533D01*
X122118168Y-56467638D01*
X122116943Y-56463867D01*
X122107636Y-56435223D01*
X122104503Y-56423773D01*
X122097928Y-56394359D01*
X122097067Y-56390505D01*
X122095207Y-56385337D01*
X122057106Y-56279511D01*
X122055824Y-56275765D01*
X122020610Y-56167388D01*
X122019384Y-56163614D01*
X122017697Y-56160028D01*
X122017693Y-56160019D01*
X122004870Y-56132769D01*
X122000327Y-56121803D01*
X121990119Y-56093449D01*
X121988782Y-56089735D01*
X121935230Y-55984633D01*
X121933496Y-55981092D01*
X121884965Y-55877958D01*
X121884964Y-55877956D01*
X121883276Y-55874369D01*
X121865008Y-55845583D01*
X121859134Y-55835284D01*
X121845452Y-55808432D01*
X121843656Y-55804907D01*
X121841427Y-55801627D01*
X121777343Y-55707329D01*
X121775170Y-55704022D01*
X121711988Y-55604463D01*
X121690259Y-55578197D01*
X121683143Y-55568720D01*
X121663975Y-55540515D01*
X121585962Y-55452028D01*
X121583402Y-55449031D01*
X121510747Y-55361205D01*
X121508223Y-55358154D01*
X121422231Y-55277402D01*
X121419390Y-55274648D01*
X116089266Y-49944524D01*
X115909485Y-49786025D01*
X115774759Y-49694465D01*
X115648366Y-49608568D01*
X115648362Y-49608566D01*
X115645093Y-49606344D01*
X115360264Y-49461217D01*
X115356540Y-49459876D01*
X115356537Y-49459875D01*
X115063216Y-49354273D01*
X115059494Y-49352933D01*
X114747523Y-49283200D01*
X114429273Y-49253117D01*
X114425321Y-49253241D01*
X114425315Y-49253241D01*
X114255641Y-49258574D01*
X114109761Y-49263158D01*
X114105854Y-49263777D01*
X114105852Y-49263777D01*
X113797933Y-49312546D01*
X113797928Y-49312547D01*
X113794027Y-49313165D01*
X113790227Y-49314269D01*
X113490853Y-49401244D01*
X113490847Y-49401246D01*
X113487051Y-49402349D01*
X113483425Y-49403918D01*
X113483417Y-49403921D01*
X113197312Y-49527730D01*
X113197309Y-49527732D01*
X113193673Y-49529305D01*
X112918519Y-49692031D01*
X112665932Y-49887958D01*
X112439891Y-50113999D01*
X112243964Y-50366586D01*
X112081238Y-50641740D01*
X112079665Y-50645376D01*
X112079663Y-50645379D01*
X111955854Y-50931484D01*
X111955851Y-50931492D01*
X111954282Y-50935118D01*
X111865098Y-51242094D01*
X111815091Y-51557828D01*
X111805050Y-51877340D01*
X111835133Y-52195590D01*
X111835995Y-52199446D01*
X111903423Y-52501107D01*
X111898762Y-52571951D01*
X111856541Y-52629029D01*
X111790163Y-52654219D01*
X111720704Y-52639523D01*
X111691362Y-52617688D01*
X110527405Y-51453731D01*
X110493379Y-51391419D01*
X110490500Y-51364636D01*
X110490500Y-45846500D01*
X110510502Y-45778379D01*
X110564158Y-45731886D01*
X110616500Y-45720500D01*
X125603500Y-45720500D01*
X125671621Y-45740502D01*
G37*
%TD.AperFunction*%
%TD*%
%TA.AperFunction,Conductor*%
%TO.N,GND*%
G36*
X104775000Y-82295500D02*
G01*
X89280500Y-82295500D01*
X89212379Y-82275498D01*
X89165886Y-82221842D01*
X89154500Y-82169500D01*
X89154500Y-78075933D01*
X89419500Y-78075933D01*
X89419501Y-79626066D01*
X89434266Y-79700301D01*
X89490516Y-79784484D01*
X89574699Y-79840734D01*
X89648933Y-79855500D01*
X89753437Y-79855500D01*
X90582787Y-79855499D01*
X90650908Y-79875501D01*
X90671882Y-79892404D01*
X91115954Y-80336476D01*
X91131318Y-80355499D01*
X91132282Y-80356558D01*
X91137929Y-80365304D01*
X91146108Y-80371752D01*
X91146110Y-80371754D01*
X91164477Y-80386234D01*
X91168950Y-80390209D01*
X91169011Y-80390137D01*
X91172968Y-80393490D01*
X91176649Y-80397171D01*
X91180881Y-80400195D01*
X91192439Y-80408455D01*
X91197185Y-80412018D01*
X91237670Y-80443934D01*
X91246355Y-80446984D01*
X91253843Y-80452335D01*
X91303250Y-80467110D01*
X91308837Y-80468926D01*
X91357502Y-80486016D01*
X91363091Y-80486500D01*
X91365802Y-80486500D01*
X91368471Y-80486615D01*
X91368532Y-80486634D01*
X91368525Y-80486808D01*
X91369272Y-80486855D01*
X91375525Y-80488725D01*
X91429689Y-80486597D01*
X91434635Y-80486500D01*
X91645653Y-80486500D01*
X91713774Y-80506502D01*
X91760267Y-80560158D01*
X91763635Y-80568271D01*
X91812929Y-80699764D01*
X91818309Y-80706943D01*
X91818311Y-80706946D01*
X91884287Y-80794977D01*
X91899596Y-80815404D01*
X91906776Y-80820785D01*
X92008054Y-80896689D01*
X92008057Y-80896691D01*
X92015236Y-80902071D01*
X92104954Y-80935704D01*
X92143157Y-80950026D01*
X92143159Y-80950026D01*
X92150552Y-80952798D01*
X92158402Y-80953651D01*
X92158403Y-80953651D01*
X92208847Y-80959131D01*
X92212244Y-80959500D01*
X93207756Y-80959500D01*
X93211153Y-80959131D01*
X93261597Y-80953651D01*
X93261598Y-80953651D01*
X93269448Y-80952798D01*
X93276841Y-80950026D01*
X93276843Y-80950026D01*
X93315046Y-80935704D01*
X93404764Y-80902071D01*
X93411943Y-80896691D01*
X93411946Y-80896689D01*
X93513224Y-80820785D01*
X93520404Y-80815404D01*
X93535713Y-80794977D01*
X93601689Y-80706946D01*
X93601691Y-80706943D01*
X93607071Y-80699764D01*
X93657798Y-80564448D01*
X93664500Y-80502756D01*
X93664500Y-79707244D01*
X93657798Y-79645552D01*
X93643302Y-79606882D01*
X93640704Y-79599954D01*
X93607071Y-79510236D01*
X93601691Y-79503057D01*
X93601689Y-79503054D01*
X93525785Y-79401776D01*
X93520404Y-79394596D01*
X93499977Y-79379287D01*
X93411946Y-79313311D01*
X93411943Y-79313309D01*
X93404764Y-79307929D01*
X93315046Y-79274296D01*
X93276843Y-79259974D01*
X93276841Y-79259974D01*
X93269448Y-79257202D01*
X93261598Y-79256349D01*
X93261597Y-79256349D01*
X93211153Y-79250869D01*
X93211152Y-79250869D01*
X93207756Y-79250500D01*
X92212244Y-79250500D01*
X92208848Y-79250869D01*
X92208847Y-79250869D01*
X92158403Y-79256349D01*
X92158402Y-79256349D01*
X92150552Y-79257202D01*
X92143159Y-79259974D01*
X92143157Y-79259974D01*
X92104954Y-79274296D01*
X92015236Y-79307929D01*
X92008057Y-79313309D01*
X92008054Y-79313311D01*
X91920023Y-79379287D01*
X91899596Y-79394596D01*
X91894215Y-79401776D01*
X91818311Y-79503054D01*
X91818309Y-79503057D01*
X91812929Y-79510236D01*
X91776699Y-79606882D01*
X91763635Y-79641729D01*
X91720994Y-79698494D01*
X91654432Y-79723194D01*
X91645653Y-79723500D01*
X91634213Y-79723500D01*
X91566092Y-79703498D01*
X91545118Y-79686595D01*
X91465405Y-79606882D01*
X91431379Y-79544570D01*
X91428500Y-79517787D01*
X91428499Y-78082123D01*
X91428499Y-78075934D01*
X91413734Y-78001699D01*
X91392501Y-77969921D01*
X91364377Y-77927832D01*
X91357484Y-77917516D01*
X91273301Y-77861266D01*
X91199067Y-77846500D01*
X90424126Y-77846500D01*
X89648934Y-77846501D01*
X89613182Y-77853612D01*
X89586874Y-77858844D01*
X89586872Y-77858845D01*
X89574699Y-77861266D01*
X89564379Y-77868161D01*
X89564378Y-77868162D01*
X89514036Y-77901800D01*
X89490516Y-77917516D01*
X89434266Y-78001699D01*
X89419500Y-78075933D01*
X89154500Y-78075933D01*
X89154500Y-72995933D01*
X89419500Y-72995933D01*
X89419501Y-74546066D01*
X89434266Y-74620301D01*
X89441161Y-74630621D01*
X89441162Y-74630622D01*
X89466508Y-74668554D01*
X89490516Y-74704484D01*
X89574699Y-74760734D01*
X89648933Y-74775500D01*
X89805080Y-74775500D01*
X90849223Y-74775499D01*
X90917344Y-74795501D01*
X90927229Y-74802549D01*
X90941670Y-74813934D01*
X90950355Y-74816984D01*
X90957842Y-74822334D01*
X91007247Y-74837109D01*
X91012842Y-74838927D01*
X91061502Y-74856016D01*
X91067091Y-74856500D01*
X91069804Y-74856500D01*
X91072469Y-74856615D01*
X91072532Y-74856634D01*
X91072525Y-74856808D01*
X91073271Y-74856855D01*
X91079524Y-74858725D01*
X91129383Y-74856766D01*
X91133678Y-74856597D01*
X91138625Y-74856500D01*
X93039728Y-74856500D01*
X93107849Y-74876502D01*
X93144493Y-74912498D01*
X93151621Y-74923166D01*
X93151623Y-74923168D01*
X93158516Y-74933484D01*
X93168832Y-74940377D01*
X93168834Y-74940379D01*
X93206926Y-74965831D01*
X93242699Y-74989734D01*
X93316933Y-75004500D01*
X93741931Y-75004500D01*
X94167066Y-75004499D01*
X94209922Y-74995975D01*
X94280634Y-75002303D01*
X94336701Y-75045858D01*
X94360500Y-75119554D01*
X94360500Y-75748865D01*
X94357914Y-75773164D01*
X94357846Y-75774602D01*
X94355655Y-75784780D01*
X94356879Y-75795120D01*
X94359627Y-75818342D01*
X94359979Y-75824320D01*
X94360072Y-75824312D01*
X94360500Y-75829490D01*
X94360500Y-75834692D01*
X94361354Y-75839822D01*
X94363686Y-75853832D01*
X94364522Y-75859704D01*
X94370582Y-75910907D01*
X94374567Y-75919206D01*
X94376078Y-75928283D01*
X94400558Y-75973651D01*
X94403239Y-75978914D01*
X94422127Y-76018250D01*
X94422130Y-76018254D01*
X94425560Y-76025398D01*
X94429170Y-76029692D01*
X94431102Y-76031624D01*
X94432889Y-76033573D01*
X94432918Y-76033626D01*
X94432788Y-76033745D01*
X94433289Y-76034313D01*
X94436388Y-76040057D01*
X94469373Y-76070548D01*
X94476194Y-76076853D01*
X94479761Y-76080283D01*
X94687960Y-76288483D01*
X94703314Y-76307494D01*
X94704280Y-76308556D01*
X94709929Y-76317304D01*
X94718104Y-76323748D01*
X94718106Y-76323751D01*
X94736472Y-76338229D01*
X94740950Y-76342208D01*
X94741010Y-76342137D01*
X94744967Y-76345490D01*
X94748648Y-76349171D01*
X94752880Y-76352195D01*
X94752882Y-76352197D01*
X94764457Y-76360469D01*
X94769202Y-76364032D01*
X94809670Y-76395934D01*
X94818355Y-76398984D01*
X94825496Y-76404087D01*
X94825847Y-76404338D01*
X94825766Y-76404451D01*
X94872269Y-76451234D01*
X94887500Y-76511286D01*
X94887500Y-76554756D01*
X94894202Y-76616448D01*
X94944929Y-76751764D01*
X94950309Y-76758943D01*
X94950311Y-76758946D01*
X95016287Y-76846977D01*
X95031596Y-76867404D01*
X95038776Y-76872785D01*
X95140054Y-76948689D01*
X95140057Y-76948691D01*
X95147236Y-76954071D01*
X95236954Y-76987704D01*
X95275157Y-77002026D01*
X95275159Y-77002026D01*
X95282552Y-77004798D01*
X95290402Y-77005651D01*
X95290403Y-77005651D01*
X95340847Y-77011131D01*
X95344244Y-77011500D01*
X96057763Y-77011500D01*
X96125884Y-77031502D01*
X96172377Y-77085158D01*
X96182481Y-77155432D01*
X96152987Y-77220012D01*
X96133328Y-77238326D01*
X96116592Y-77250869D01*
X96079596Y-77278596D01*
X96074215Y-77285776D01*
X95998311Y-77387054D01*
X95998309Y-77387057D01*
X95992929Y-77394236D01*
X95959296Y-77483954D01*
X95945114Y-77521785D01*
X95942202Y-77529552D01*
X95941349Y-77537402D01*
X95941349Y-77537403D01*
X95935869Y-77587847D01*
X95935500Y-77591244D01*
X95935500Y-77624557D01*
X95915498Y-77692678D01*
X95861842Y-77739171D01*
X95791568Y-77749275D01*
X95726988Y-77719781D01*
X95691329Y-77660978D01*
X95689798Y-77661552D01*
X95662304Y-77588212D01*
X95639071Y-77526236D01*
X95633691Y-77519057D01*
X95633689Y-77519054D01*
X95557785Y-77417776D01*
X95552404Y-77410596D01*
X95520992Y-77387054D01*
X95443946Y-77329311D01*
X95443943Y-77329309D01*
X95436764Y-77323929D01*
X95315837Y-77278596D01*
X95308843Y-77275974D01*
X95308841Y-77275974D01*
X95301448Y-77273202D01*
X95293598Y-77272349D01*
X95293597Y-77272349D01*
X95243153Y-77266869D01*
X95243152Y-77266869D01*
X95239756Y-77266500D01*
X94244244Y-77266500D01*
X94240848Y-77266869D01*
X94240847Y-77266869D01*
X94190403Y-77272349D01*
X94190402Y-77272349D01*
X94182552Y-77273202D01*
X94175159Y-77275974D01*
X94175157Y-77275974D01*
X94168163Y-77278596D01*
X94047236Y-77323929D01*
X94040057Y-77329309D01*
X94040054Y-77329311D01*
X93963008Y-77387054D01*
X93931596Y-77410596D01*
X93844929Y-77526236D01*
X93841776Y-77534646D01*
X93839904Y-77538066D01*
X93789646Y-77588212D01*
X93720255Y-77603227D01*
X93653763Y-77578343D01*
X93614824Y-77526356D01*
X93614533Y-77526515D01*
X93613420Y-77524481D01*
X93611400Y-77521785D01*
X93610377Y-77519054D01*
X93607071Y-77510236D01*
X93601691Y-77503057D01*
X93601689Y-77503054D01*
X93525785Y-77401776D01*
X93520404Y-77394596D01*
X93499977Y-77379287D01*
X93411946Y-77313311D01*
X93411943Y-77313309D01*
X93404764Y-77307929D01*
X93294251Y-77266500D01*
X93276843Y-77259974D01*
X93276841Y-77259974D01*
X93269448Y-77257202D01*
X93261598Y-77256349D01*
X93261597Y-77256349D01*
X93211153Y-77250869D01*
X93211152Y-77250869D01*
X93207756Y-77250500D01*
X92212244Y-77250500D01*
X92208848Y-77250869D01*
X92208847Y-77250869D01*
X92158403Y-77256349D01*
X92158402Y-77256349D01*
X92150552Y-77257202D01*
X92143159Y-77259974D01*
X92143157Y-77259974D01*
X92125749Y-77266500D01*
X92015236Y-77307929D01*
X92008057Y-77313309D01*
X92008054Y-77313311D01*
X91920023Y-77379287D01*
X91899596Y-77394596D01*
X91894215Y-77401776D01*
X91818311Y-77503054D01*
X91818309Y-77503057D01*
X91812929Y-77510236D01*
X91787397Y-77578343D01*
X91770073Y-77624557D01*
X91762202Y-77645552D01*
X91755500Y-77707244D01*
X91755500Y-78502756D01*
X91762202Y-78564448D01*
X91812929Y-78699764D01*
X91818309Y-78706943D01*
X91818311Y-78706946D01*
X91869585Y-78775360D01*
X91899596Y-78815404D01*
X91906776Y-78820785D01*
X92008054Y-78896689D01*
X92008057Y-78896691D01*
X92015236Y-78902071D01*
X92104954Y-78935704D01*
X92143157Y-78950026D01*
X92143159Y-78950026D01*
X92150552Y-78952798D01*
X92158402Y-78953651D01*
X92158403Y-78953651D01*
X92208847Y-78959131D01*
X92212244Y-78959500D01*
X93207756Y-78959500D01*
X93211153Y-78959131D01*
X93261597Y-78953651D01*
X93261598Y-78953651D01*
X93269448Y-78952798D01*
X93276841Y-78950026D01*
X93276843Y-78950026D01*
X93315046Y-78935704D01*
X93404764Y-78902071D01*
X93411943Y-78896691D01*
X93411946Y-78896689D01*
X93513224Y-78820785D01*
X93520404Y-78815404D01*
X93607071Y-78699764D01*
X93610224Y-78691354D01*
X93612096Y-78687934D01*
X93662354Y-78637788D01*
X93731745Y-78622773D01*
X93798237Y-78647657D01*
X93837176Y-78699644D01*
X93837467Y-78699485D01*
X93838580Y-78701519D01*
X93840599Y-78704214D01*
X93844929Y-78715764D01*
X93850309Y-78722943D01*
X93850311Y-78722946D01*
X93914224Y-78808224D01*
X93931596Y-78831404D01*
X93938776Y-78836785D01*
X94040054Y-78912689D01*
X94040057Y-78912691D01*
X94047236Y-78918071D01*
X94132477Y-78950026D01*
X94175157Y-78966026D01*
X94175159Y-78966026D01*
X94182552Y-78968798D01*
X94190402Y-78969651D01*
X94190403Y-78969651D01*
X94229534Y-78973902D01*
X94244244Y-78975500D01*
X95058287Y-78975500D01*
X95126408Y-78995502D01*
X95147383Y-79012405D01*
X95823596Y-79688619D01*
X95857621Y-79750931D01*
X95860500Y-79777714D01*
X95860500Y-79860834D01*
X95875502Y-79955555D01*
X95933674Y-80069723D01*
X96024277Y-80160326D01*
X96138445Y-80218498D01*
X96233166Y-80233500D01*
X97471834Y-80233500D01*
X97566555Y-80218498D01*
X97575389Y-80213997D01*
X97584822Y-80210932D01*
X97585742Y-80213763D01*
X97639849Y-80203602D01*
X97705634Y-80230302D01*
X97746540Y-80288330D01*
X97749280Y-80352251D01*
X97750502Y-80352445D01*
X97735500Y-80447166D01*
X97735500Y-80810834D01*
X97750502Y-80905555D01*
X97808674Y-81019723D01*
X97899277Y-81110326D01*
X98013445Y-81168498D01*
X98108166Y-81183500D01*
X98555391Y-81183500D01*
X98578149Y-81186496D01*
X98578178Y-81186277D01*
X98727500Y-81205936D01*
X98735688Y-81204858D01*
X98876822Y-81186277D01*
X98876851Y-81186496D01*
X98899609Y-81183500D01*
X99346834Y-81183500D01*
X99441555Y-81168498D01*
X99555723Y-81110326D01*
X99646326Y-81019723D01*
X99704498Y-80905555D01*
X99719500Y-80810834D01*
X99719500Y-80447166D01*
X99704498Y-80352445D01*
X99646326Y-80238277D01*
X99555723Y-80147674D01*
X99441555Y-80089502D01*
X99405790Y-80083837D01*
X99341638Y-80053427D01*
X99304110Y-79993159D01*
X99299500Y-79959389D01*
X99299500Y-79105362D01*
X99319502Y-79037241D01*
X99368954Y-78994390D01*
X99368485Y-78993533D01*
X99372448Y-78991363D01*
X99373158Y-78990748D01*
X99374870Y-78990038D01*
X99376364Y-78989220D01*
X99384764Y-78986071D01*
X99391943Y-78980691D01*
X99391946Y-78980689D01*
X99493224Y-78904785D01*
X99493225Y-78904784D01*
X99500404Y-78899404D01*
X99556748Y-78824224D01*
X99581689Y-78790946D01*
X99581691Y-78790943D01*
X99587071Y-78783764D01*
X99637798Y-78648448D01*
X99644500Y-78586756D01*
X99644500Y-77969921D01*
X99664502Y-77901800D01*
X99681405Y-77880826D01*
X101433934Y-76128297D01*
X101496246Y-76094271D01*
X101567975Y-76099681D01*
X101573681Y-76101860D01*
X101588761Y-76107618D01*
X101811050Y-76152844D01*
X101816223Y-76153034D01*
X101816226Y-76153034D01*
X102032577Y-76160967D01*
X102032581Y-76160967D01*
X102037741Y-76161156D01*
X102042861Y-76160500D01*
X102042863Y-76160500D01*
X102114091Y-76151375D01*
X102262745Y-76132332D01*
X102267694Y-76130847D01*
X102267700Y-76130846D01*
X102394423Y-76092827D01*
X102480021Y-76067147D01*
X102683732Y-75967349D01*
X102687936Y-75964351D01*
X102687940Y-75964348D01*
X102777357Y-75900567D01*
X102868409Y-75835621D01*
X103029091Y-75675499D01*
X103161463Y-75491283D01*
X103261971Y-75287921D01*
X103313124Y-75119554D01*
X103326412Y-75075819D01*
X103326412Y-75075818D01*
X103327914Y-75070875D01*
X103331208Y-75045858D01*
X103357086Y-74849294D01*
X103357087Y-74849288D01*
X103357523Y-74845972D01*
X103359176Y-74778353D01*
X103340589Y-74552273D01*
X103285326Y-74332264D01*
X103200672Y-74137572D01*
X103196933Y-74128972D01*
X103196931Y-74128969D01*
X103194873Y-74124235D01*
X103071658Y-73933773D01*
X103044106Y-73903493D01*
X102922467Y-73769815D01*
X102922466Y-73769814D01*
X102918989Y-73765993D01*
X102914938Y-73762794D01*
X102914934Y-73762790D01*
X102745023Y-73628602D01*
X102745019Y-73628600D01*
X102740968Y-73625400D01*
X102542375Y-73515771D01*
X102537506Y-73514047D01*
X102537502Y-73514045D01*
X102333418Y-73441775D01*
X102333414Y-73441774D01*
X102328543Y-73440049D01*
X102323450Y-73439142D01*
X102323447Y-73439141D01*
X102110304Y-73401174D01*
X102110298Y-73401173D01*
X102105215Y-73400268D01*
X102031672Y-73399370D01*
X101883559Y-73397560D01*
X101883557Y-73397560D01*
X101878389Y-73397497D01*
X101654156Y-73431809D01*
X101503916Y-73480915D01*
X101443457Y-73500676D01*
X101443455Y-73500677D01*
X101438538Y-73502284D01*
X101433952Y-73504671D01*
X101433948Y-73504673D01*
X101298025Y-73575431D01*
X101237326Y-73607029D01*
X101233184Y-73610139D01*
X101067324Y-73734670D01*
X101055923Y-73743230D01*
X100899201Y-73907230D01*
X100896287Y-73911502D01*
X100896286Y-73911503D01*
X100774288Y-74090345D01*
X100774285Y-74090350D01*
X100771369Y-74094625D01*
X100675860Y-74300382D01*
X100615238Y-74518975D01*
X100591133Y-74744533D01*
X100591430Y-74749685D01*
X100591430Y-74749689D01*
X100597646Y-74857494D01*
X100604191Y-74971000D01*
X100605328Y-74976046D01*
X100605329Y-74976052D01*
X100621061Y-75045858D01*
X100654062Y-75192294D01*
X100654982Y-75194561D01*
X100656253Y-75264751D01*
X100623829Y-75320542D01*
X98846776Y-77097595D01*
X98784464Y-77131621D01*
X98757681Y-77134500D01*
X98392244Y-77134500D01*
X98388848Y-77134869D01*
X98388847Y-77134869D01*
X98338403Y-77140349D01*
X98338402Y-77140349D01*
X98330552Y-77141202D01*
X98323159Y-77143974D01*
X98323157Y-77143974D01*
X98292593Y-77155432D01*
X98195236Y-77191929D01*
X98188057Y-77197309D01*
X98188054Y-77197311D01*
X98116592Y-77250869D01*
X98079596Y-77278596D01*
X98074215Y-77285776D01*
X97998311Y-77387054D01*
X97998309Y-77387057D01*
X97992929Y-77394236D01*
X97959296Y-77483954D01*
X97945114Y-77521785D01*
X97942202Y-77529552D01*
X97941349Y-77537402D01*
X97941349Y-77537403D01*
X97935869Y-77587847D01*
X97935500Y-77591244D01*
X97935500Y-78586756D01*
X97942202Y-78648448D01*
X97992929Y-78783764D01*
X97998309Y-78790943D01*
X97998311Y-78790946D01*
X98023252Y-78824224D01*
X98079596Y-78899404D01*
X98097322Y-78912689D01*
X98105065Y-78918492D01*
X98147580Y-78975351D01*
X98155500Y-79019318D01*
X98155500Y-79959389D01*
X98135498Y-80027510D01*
X98081842Y-80074003D01*
X98049211Y-80083837D01*
X98013445Y-80089502D01*
X98004611Y-80094003D01*
X97995178Y-80097068D01*
X97994258Y-80094237D01*
X97940151Y-80104398D01*
X97874366Y-80077698D01*
X97833460Y-80019670D01*
X97830720Y-79955749D01*
X97829498Y-79955555D01*
X97830454Y-79949522D01*
X97830454Y-79949520D01*
X97844500Y-79860834D01*
X97844500Y-79497166D01*
X97829498Y-79402445D01*
X97771326Y-79288277D01*
X97680723Y-79197674D01*
X97566555Y-79139502D01*
X97541728Y-79135570D01*
X97477575Y-79105159D01*
X97440047Y-79044891D01*
X97441060Y-78973902D01*
X97485873Y-78910294D01*
X97493225Y-78904784D01*
X97500404Y-78899404D01*
X97556748Y-78824224D01*
X97581689Y-78790946D01*
X97581691Y-78790943D01*
X97587071Y-78783764D01*
X97637798Y-78648448D01*
X97644500Y-78586756D01*
X97644500Y-77591244D01*
X97644131Y-77587847D01*
X97638651Y-77537403D01*
X97638651Y-77537402D01*
X97637798Y-77529552D01*
X97634887Y-77521785D01*
X97620704Y-77483954D01*
X97587071Y-77394236D01*
X97581691Y-77387057D01*
X97581689Y-77387054D01*
X97505785Y-77285776D01*
X97500404Y-77278596D01*
X97463408Y-77250869D01*
X97391946Y-77197311D01*
X97391943Y-77197309D01*
X97384764Y-77191929D01*
X97284105Y-77154194D01*
X97253271Y-77142635D01*
X97196506Y-77099994D01*
X97171806Y-77033432D01*
X97171500Y-77024653D01*
X97171500Y-74857135D01*
X97174086Y-74832836D01*
X97174154Y-74831398D01*
X97176345Y-74821220D01*
X97172373Y-74787658D01*
X97172021Y-74781680D01*
X97171928Y-74781688D01*
X97171500Y-74776510D01*
X97171500Y-74771308D01*
X97168312Y-74752154D01*
X97167477Y-74746289D01*
X97162642Y-74705433D01*
X97162642Y-74705432D01*
X97161418Y-74695093D01*
X97157433Y-74686794D01*
X97155922Y-74677717D01*
X97131442Y-74632349D01*
X97128761Y-74627086D01*
X97109873Y-74587750D01*
X97109870Y-74587746D01*
X97106440Y-74580602D01*
X97102830Y-74576308D01*
X97100898Y-74574376D01*
X97099111Y-74572427D01*
X97099082Y-74572374D01*
X97099212Y-74572255D01*
X97098711Y-74571687D01*
X97095612Y-74565943D01*
X97055806Y-74529147D01*
X97052239Y-74525717D01*
X96770040Y-74243517D01*
X96754686Y-74224506D01*
X96753720Y-74223444D01*
X96748071Y-74214696D01*
X96739896Y-74208252D01*
X96739894Y-74208249D01*
X96721528Y-74193771D01*
X96717053Y-74189794D01*
X96716992Y-74189865D01*
X96713035Y-74186512D01*
X96709352Y-74182829D01*
X96693561Y-74171545D01*
X96688815Y-74167982D01*
X96656507Y-74142512D01*
X96656506Y-74142511D01*
X96648330Y-74136066D01*
X96639643Y-74133015D01*
X96632157Y-74127666D01*
X96622181Y-74124683D01*
X96622180Y-74124682D01*
X96582789Y-74112902D01*
X96577157Y-74111072D01*
X96528498Y-74093984D01*
X96522909Y-74093500D01*
X96520198Y-74093500D01*
X96517531Y-74093385D01*
X96517468Y-74093366D01*
X96517475Y-74093192D01*
X96516729Y-74093145D01*
X96510476Y-74091275D01*
X96500072Y-74091684D01*
X96491177Y-74090560D01*
X96426100Y-74062178D01*
X96386700Y-74003118D01*
X96383391Y-73940974D01*
X96395293Y-73881137D01*
X96395293Y-73881133D01*
X96396500Y-73875067D01*
X96396499Y-73274934D01*
X96388267Y-73233543D01*
X96384156Y-73212874D01*
X96384155Y-73212872D01*
X96381734Y-73200699D01*
X96340476Y-73138952D01*
X96332377Y-73126832D01*
X96325484Y-73116516D01*
X96241301Y-73060266D01*
X96167067Y-73045500D01*
X95742069Y-73045500D01*
X95316934Y-73045501D01*
X95281182Y-73052612D01*
X95254874Y-73057844D01*
X95254872Y-73057845D01*
X95242699Y-73060266D01*
X95232379Y-73067161D01*
X95232378Y-73067162D01*
X95168834Y-73109621D01*
X95168832Y-73109623D01*
X95158516Y-73116516D01*
X95151621Y-73126835D01*
X95143524Y-73138952D01*
X95089047Y-73184480D01*
X95056181Y-73192752D01*
X95056306Y-73193500D01*
X95037165Y-73196686D01*
X95031286Y-73197523D01*
X94990433Y-73202358D01*
X94990432Y-73202358D01*
X94980093Y-73203582D01*
X94971794Y-73207567D01*
X94962717Y-73209078D01*
X94917349Y-73233558D01*
X94912086Y-73236239D01*
X94872750Y-73255127D01*
X94872746Y-73255130D01*
X94865602Y-73258560D01*
X94861308Y-73262170D01*
X94859376Y-73264102D01*
X94857427Y-73265889D01*
X94857374Y-73265918D01*
X94857255Y-73265788D01*
X94856687Y-73266289D01*
X94850943Y-73269388D01*
X94814147Y-73309194D01*
X94810717Y-73312761D01*
X94611594Y-73511883D01*
X94549282Y-73545908D01*
X94478466Y-73540843D01*
X94421631Y-73498296D01*
X94396820Y-73431775D01*
X94396499Y-73422787D01*
X94396499Y-73274934D01*
X94388267Y-73233543D01*
X94384156Y-73212874D01*
X94384155Y-73212872D01*
X94381734Y-73200699D01*
X94340476Y-73138952D01*
X94332377Y-73126832D01*
X94325484Y-73116516D01*
X94241301Y-73060266D01*
X94167067Y-73045500D01*
X93742069Y-73045500D01*
X93316934Y-73045501D01*
X93281182Y-73052612D01*
X93254874Y-73057844D01*
X93254872Y-73057845D01*
X93242699Y-73060266D01*
X93232379Y-73067161D01*
X93232378Y-73067162D01*
X93171985Y-73107516D01*
X93158516Y-73116516D01*
X93102266Y-73200699D01*
X93087500Y-73274933D01*
X93087501Y-73875066D01*
X93088709Y-73881138D01*
X93100997Y-73942921D01*
X93094668Y-74013635D01*
X93051113Y-74069701D01*
X92977418Y-74093500D01*
X91554500Y-74093500D01*
X91486379Y-74073498D01*
X91439886Y-74019842D01*
X91428500Y-73967500D01*
X91428499Y-73627621D01*
X91448501Y-73559501D01*
X91465404Y-73538526D01*
X92908476Y-72095454D01*
X92977141Y-72005967D01*
X92993971Y-71965336D01*
X93038517Y-71910058D01*
X93049871Y-71903036D01*
X93051356Y-71902223D01*
X93059764Y-71899071D01*
X93066945Y-71893689D01*
X93066949Y-71893687D01*
X93168224Y-71817785D01*
X93175404Y-71812404D01*
X93221055Y-71751492D01*
X93256689Y-71703946D01*
X93256691Y-71703943D01*
X93262071Y-71696764D01*
X93286810Y-71630772D01*
X93329451Y-71574007D01*
X93396012Y-71549306D01*
X93404792Y-71549000D01*
X95123955Y-71549000D01*
X95140401Y-71550078D01*
X95161510Y-71552857D01*
X95161511Y-71552857D01*
X95169699Y-71553935D01*
X95177887Y-71552857D01*
X95177888Y-71552857D01*
X95207178Y-71549001D01*
X95207190Y-71549000D01*
X95207193Y-71549000D01*
X95207202Y-71548999D01*
X95288324Y-71538318D01*
X95319021Y-71534277D01*
X95458167Y-71476641D01*
X95577654Y-71384955D01*
X95595648Y-71361505D01*
X95606515Y-71349114D01*
X96130633Y-70824996D01*
X96192945Y-70790970D01*
X96264674Y-70796380D01*
X96270380Y-70798559D01*
X96285460Y-70804317D01*
X96507749Y-70849543D01*
X96512922Y-70849733D01*
X96512925Y-70849733D01*
X96729276Y-70857666D01*
X96729280Y-70857666D01*
X96734440Y-70857855D01*
X96739560Y-70857199D01*
X96739562Y-70857199D01*
X96810790Y-70848074D01*
X96959444Y-70829031D01*
X96964393Y-70827546D01*
X96964399Y-70827545D01*
X97091122Y-70789526D01*
X97176720Y-70763846D01*
X97380431Y-70664048D01*
X97384635Y-70661050D01*
X97384639Y-70661047D01*
X97461839Y-70605981D01*
X97565108Y-70532320D01*
X97725790Y-70372198D01*
X97858162Y-70187982D01*
X97881088Y-70141596D01*
X97956376Y-69989262D01*
X97956377Y-69989260D01*
X97958670Y-69984620D01*
X98024613Y-69767574D01*
X98037762Y-69667699D01*
X98053785Y-69545993D01*
X98053786Y-69545987D01*
X98054222Y-69542671D01*
X98055875Y-69475052D01*
X98037288Y-69248972D01*
X97982025Y-69028963D01*
X97891572Y-68820934D01*
X97768357Y-68630472D01*
X97740805Y-68600192D01*
X97619166Y-68466514D01*
X97619165Y-68466513D01*
X97615688Y-68462692D01*
X97611637Y-68459493D01*
X97611633Y-68459489D01*
X97441722Y-68325301D01*
X97441718Y-68325299D01*
X97437667Y-68322099D01*
X97239074Y-68212470D01*
X97234205Y-68210746D01*
X97234201Y-68210744D01*
X97030117Y-68138474D01*
X97030113Y-68138473D01*
X97025242Y-68136748D01*
X97020149Y-68135841D01*
X97020146Y-68135840D01*
X96807003Y-68097873D01*
X96806997Y-68097872D01*
X96801914Y-68096967D01*
X96728371Y-68096069D01*
X96580258Y-68094259D01*
X96580256Y-68094259D01*
X96575088Y-68094196D01*
X96350855Y-68128508D01*
X96200615Y-68177614D01*
X96140156Y-68197375D01*
X96140154Y-68197376D01*
X96135237Y-68198983D01*
X96130651Y-68201370D01*
X96130647Y-68201372D01*
X96104528Y-68214969D01*
X95934025Y-68303728D01*
X95752622Y-68439929D01*
X95595900Y-68603929D01*
X95592986Y-68608201D01*
X95592985Y-68608202D01*
X95470987Y-68787044D01*
X95470984Y-68787049D01*
X95468068Y-68791324D01*
X95372559Y-68997081D01*
X95311937Y-69215674D01*
X95287832Y-69441232D01*
X95288129Y-69446384D01*
X95288129Y-69446388D01*
X95293681Y-69542671D01*
X95300890Y-69667699D01*
X95302027Y-69672745D01*
X95302028Y-69672751D01*
X95322243Y-69762448D01*
X95350761Y-69888993D01*
X95351681Y-69891260D01*
X95352952Y-69961450D01*
X95320528Y-70017241D01*
X94969674Y-70368095D01*
X94907362Y-70402121D01*
X94880579Y-70405000D01*
X93404792Y-70405000D01*
X93336671Y-70384998D01*
X93290178Y-70331342D01*
X93286810Y-70323228D01*
X93265222Y-70265641D01*
X93265222Y-70265640D01*
X93262071Y-70257236D01*
X93256691Y-70250057D01*
X93256689Y-70250054D01*
X93180785Y-70148776D01*
X93175404Y-70141596D01*
X93154977Y-70126287D01*
X93066946Y-70060311D01*
X93066943Y-70060309D01*
X93059764Y-70054929D01*
X92959230Y-70017241D01*
X92931843Y-70006974D01*
X92931841Y-70006974D01*
X92924448Y-70004202D01*
X92916598Y-70003349D01*
X92916597Y-70003349D01*
X92866153Y-69997869D01*
X92866152Y-69997869D01*
X92862756Y-69997500D01*
X92092244Y-69997500D01*
X92088848Y-69997869D01*
X92088847Y-69997869D01*
X92038403Y-70003349D01*
X92038402Y-70003349D01*
X92030552Y-70004202D01*
X92023159Y-70006974D01*
X92023157Y-70006974D01*
X91995770Y-70017241D01*
X91895236Y-70054929D01*
X91888057Y-70060309D01*
X91888054Y-70060311D01*
X91800023Y-70126287D01*
X91779596Y-70141596D01*
X91774215Y-70148776D01*
X91698311Y-70250054D01*
X91698309Y-70250057D01*
X91692929Y-70257236D01*
X91642202Y-70392552D01*
X91635500Y-70454244D01*
X91635500Y-71499756D01*
X91635869Y-71503152D01*
X91635869Y-71503153D01*
X91640850Y-71548999D01*
X91642202Y-71561448D01*
X91644974Y-71568841D01*
X91644974Y-71568843D01*
X91663465Y-71618168D01*
X91668648Y-71688975D01*
X91634578Y-71751492D01*
X90656475Y-72729595D01*
X90594163Y-72763621D01*
X90567380Y-72766500D01*
X89751835Y-72766501D01*
X89648934Y-72766501D01*
X89613182Y-72773612D01*
X89586874Y-72778844D01*
X89586872Y-72778845D01*
X89574699Y-72781266D01*
X89564379Y-72788161D01*
X89564378Y-72788162D01*
X89503985Y-72828516D01*
X89490516Y-72837516D01*
X89434266Y-72921699D01*
X89419500Y-72995933D01*
X89154500Y-72995933D01*
X89154500Y-66675000D01*
X104775000Y-66675000D01*
X104775000Y-82295500D01*
G37*
%TD.AperFunction*%
%TD*%
M02*
