%TF.GenerationSoftware,KiCad,Pcbnew,(6.0.7)*%
%TF.CreationDate,2022-09-13T12:21:28-04:00*%
%TF.ProjectId,switch-board,73776974-6368-42d6-926f-6172642e6b69,A*%
%TF.SameCoordinates,Original*%
%TF.FileFunction,Legend,Top*%
%TF.FilePolarity,Positive*%
%FSLAX46Y46*%
G04 Gerber Fmt 4.6, Leading zero omitted, Abs format (unit mm)*
G04 Created by KiCad (PCBNEW (6.0.7)) date 2022-09-13 12:21:28*
%MOMM*%
%LPD*%
G01*
G04 APERTURE LIST*
%ADD10C,0.150000*%
%ADD11C,0.120000*%
G04 APERTURE END LIST*
D10*
%TO.C,C2*%
X119213333Y-69953142D02*
X119165714Y-70000761D01*
X119022857Y-70048380D01*
X118927619Y-70048380D01*
X118784761Y-70000761D01*
X118689523Y-69905523D01*
X118641904Y-69810285D01*
X118594285Y-69619809D01*
X118594285Y-69476952D01*
X118641904Y-69286476D01*
X118689523Y-69191238D01*
X118784761Y-69096000D01*
X118927619Y-69048380D01*
X119022857Y-69048380D01*
X119165714Y-69096000D01*
X119213333Y-69143619D01*
X119594285Y-69143619D02*
X119641904Y-69096000D01*
X119737142Y-69048380D01*
X119975238Y-69048380D01*
X120070476Y-69096000D01*
X120118095Y-69143619D01*
X120165714Y-69238857D01*
X120165714Y-69334095D01*
X120118095Y-69476952D01*
X119546666Y-70048380D01*
X120165714Y-70048380D01*
%TO.C,R4*%
X94575333Y-82113380D02*
X94242000Y-81637190D01*
X94003904Y-82113380D02*
X94003904Y-81113380D01*
X94384857Y-81113380D01*
X94480095Y-81161000D01*
X94527714Y-81208619D01*
X94575333Y-81303857D01*
X94575333Y-81446714D01*
X94527714Y-81541952D01*
X94480095Y-81589571D01*
X94384857Y-81637190D01*
X94003904Y-81637190D01*
X95432476Y-81446714D02*
X95432476Y-82113380D01*
X95194380Y-81065761D02*
X94956285Y-81780047D01*
X95575333Y-81780047D01*
%TO.C,C1*%
X94337142Y-71905666D02*
X94384761Y-71953285D01*
X94432380Y-72096142D01*
X94432380Y-72191380D01*
X94384761Y-72334238D01*
X94289523Y-72429476D01*
X94194285Y-72477095D01*
X94003809Y-72524714D01*
X93860952Y-72524714D01*
X93670476Y-72477095D01*
X93575238Y-72429476D01*
X93480000Y-72334238D01*
X93432380Y-72191380D01*
X93432380Y-72096142D01*
X93480000Y-71953285D01*
X93527619Y-71905666D01*
X94432380Y-70953285D02*
X94432380Y-71524714D01*
X94432380Y-71239000D02*
X93432380Y-71239000D01*
X93575238Y-71334238D01*
X93670476Y-71429476D01*
X93718095Y-71524714D01*
%TO.C,R3*%
X97877333Y-77017380D02*
X97544000Y-76541190D01*
X97305904Y-77017380D02*
X97305904Y-76017380D01*
X97686857Y-76017380D01*
X97782095Y-76065000D01*
X97829714Y-76112619D01*
X97877333Y-76207857D01*
X97877333Y-76350714D01*
X97829714Y-76445952D01*
X97782095Y-76493571D01*
X97686857Y-76541190D01*
X97305904Y-76541190D01*
X98210666Y-76017380D02*
X98829714Y-76017380D01*
X98496380Y-76398333D01*
X98639238Y-76398333D01*
X98734476Y-76445952D01*
X98782095Y-76493571D01*
X98829714Y-76588809D01*
X98829714Y-76826904D01*
X98782095Y-76922142D01*
X98734476Y-76969761D01*
X98639238Y-77017380D01*
X98353523Y-77017380D01*
X98258285Y-76969761D01*
X98210666Y-76922142D01*
%TO.C,R1*%
X92781380Y-76223666D02*
X92305190Y-76557000D01*
X92781380Y-76795095D02*
X91781380Y-76795095D01*
X91781380Y-76414142D01*
X91829000Y-76318904D01*
X91876619Y-76271285D01*
X91971857Y-76223666D01*
X92114714Y-76223666D01*
X92209952Y-76271285D01*
X92257571Y-76318904D01*
X92305190Y-76414142D01*
X92305190Y-76795095D01*
X92781380Y-75271285D02*
X92781380Y-75842714D01*
X92781380Y-75557000D02*
X91781380Y-75557000D01*
X91924238Y-75652238D01*
X92019476Y-75747476D01*
X92067095Y-75842714D01*
%TO.C,C3*%
X114022142Y-75096666D02*
X114069761Y-75144285D01*
X114117380Y-75287142D01*
X114117380Y-75382380D01*
X114069761Y-75525238D01*
X113974523Y-75620476D01*
X113879285Y-75668095D01*
X113688809Y-75715714D01*
X113545952Y-75715714D01*
X113355476Y-75668095D01*
X113260238Y-75620476D01*
X113165000Y-75525238D01*
X113117380Y-75382380D01*
X113117380Y-75287142D01*
X113165000Y-75144285D01*
X113212619Y-75096666D01*
X113117380Y-74763333D02*
X113117380Y-74144285D01*
X113498333Y-74477619D01*
X113498333Y-74334761D01*
X113545952Y-74239523D01*
X113593571Y-74191904D01*
X113688809Y-74144285D01*
X113926904Y-74144285D01*
X114022142Y-74191904D01*
X114069761Y-74239523D01*
X114117380Y-74334761D01*
X114117380Y-74620476D01*
X114069761Y-74715714D01*
X114022142Y-74763333D01*
%TO.C,D1*%
X92781380Y-74636095D02*
X91781380Y-74636095D01*
X91781380Y-74398000D01*
X91829000Y-74255142D01*
X91924238Y-74159904D01*
X92019476Y-74112285D01*
X92209952Y-74064666D01*
X92352809Y-74064666D01*
X92543285Y-74112285D01*
X92638523Y-74159904D01*
X92733761Y-74255142D01*
X92781380Y-74398000D01*
X92781380Y-74636095D01*
X92781380Y-73112285D02*
X92781380Y-73683714D01*
X92781380Y-73398000D02*
X91781380Y-73398000D01*
X91924238Y-73493238D01*
X92019476Y-73588476D01*
X92067095Y-73683714D01*
%TO.C,C4*%
X102592142Y-52236666D02*
X102639761Y-52284285D01*
X102687380Y-52427142D01*
X102687380Y-52522380D01*
X102639761Y-52665238D01*
X102544523Y-52760476D01*
X102449285Y-52808095D01*
X102258809Y-52855714D01*
X102115952Y-52855714D01*
X101925476Y-52808095D01*
X101830238Y-52760476D01*
X101735000Y-52665238D01*
X101687380Y-52522380D01*
X101687380Y-52427142D01*
X101735000Y-52284285D01*
X101782619Y-52236666D01*
X102020714Y-51379523D02*
X102687380Y-51379523D01*
X101639761Y-51617619D02*
X102354047Y-51855714D01*
X102354047Y-51236666D01*
%TO.C,C5*%
X96353333Y-58142142D02*
X96305714Y-58189761D01*
X96162857Y-58237380D01*
X96067619Y-58237380D01*
X95924761Y-58189761D01*
X95829523Y-58094523D01*
X95781904Y-57999285D01*
X95734285Y-57808809D01*
X95734285Y-57665952D01*
X95781904Y-57475476D01*
X95829523Y-57380238D01*
X95924761Y-57285000D01*
X96067619Y-57237380D01*
X96162857Y-57237380D01*
X96305714Y-57285000D01*
X96353333Y-57332619D01*
X97258095Y-57237380D02*
X96781904Y-57237380D01*
X96734285Y-57713571D01*
X96781904Y-57665952D01*
X96877142Y-57618333D01*
X97115238Y-57618333D01*
X97210476Y-57665952D01*
X97258095Y-57713571D01*
X97305714Y-57808809D01*
X97305714Y-58046904D01*
X97258095Y-58142142D01*
X97210476Y-58189761D01*
X97115238Y-58237380D01*
X96877142Y-58237380D01*
X96781904Y-58189761D01*
X96734285Y-58142142D01*
%TO.C,K1*%
X108384365Y-64978189D02*
X107677258Y-64271083D01*
X108788426Y-64574128D02*
X108081319Y-64473113D01*
X108081319Y-63867021D02*
X108081319Y-64675144D01*
X109461861Y-63900693D02*
X109057800Y-64304754D01*
X109259831Y-64102724D02*
X108552724Y-63395617D01*
X108586396Y-63563976D01*
X108586396Y-63698663D01*
X108552724Y-63799678D01*
%TO.C,R2*%
X92162333Y-82097380D02*
X91829000Y-81621190D01*
X91590904Y-82097380D02*
X91590904Y-81097380D01*
X91971857Y-81097380D01*
X92067095Y-81145000D01*
X92114714Y-81192619D01*
X92162333Y-81287857D01*
X92162333Y-81430714D01*
X92114714Y-81525952D01*
X92067095Y-81573571D01*
X91971857Y-81621190D01*
X91590904Y-81621190D01*
X92543285Y-81192619D02*
X92590904Y-81145000D01*
X92686142Y-81097380D01*
X92924238Y-81097380D01*
X93019476Y-81145000D01*
X93067095Y-81192619D01*
X93114714Y-81287857D01*
X93114714Y-81383095D01*
X93067095Y-81525952D01*
X92495666Y-82097380D01*
X93114714Y-82097380D01*
%TO.C,Q1*%
X99472761Y-82446619D02*
X99377523Y-82399000D01*
X99282285Y-82303761D01*
X99139428Y-82160904D01*
X99044190Y-82113285D01*
X98948952Y-82113285D01*
X98996571Y-82351380D02*
X98901333Y-82303761D01*
X98806095Y-82208523D01*
X98758476Y-82018047D01*
X98758476Y-81684714D01*
X98806095Y-81494238D01*
X98901333Y-81399000D01*
X98996571Y-81351380D01*
X99187047Y-81351380D01*
X99282285Y-81399000D01*
X99377523Y-81494238D01*
X99425142Y-81684714D01*
X99425142Y-82018047D01*
X99377523Y-82208523D01*
X99282285Y-82303761D01*
X99187047Y-82351380D01*
X98996571Y-82351380D01*
X100377523Y-82351380D02*
X99806095Y-82351380D01*
X100091809Y-82351380D02*
X100091809Y-81351380D01*
X99996571Y-81494238D01*
X99901333Y-81589476D01*
X99806095Y-81637095D01*
D11*
%TO.C,C2*%
X121725000Y-66820252D02*
X121725000Y-64497748D01*
X118305000Y-66820252D02*
X118305000Y-64497748D01*
%TO.C,R4*%
X94007000Y-79348064D02*
X94007000Y-78893936D01*
X95477000Y-79348064D02*
X95477000Y-78893936D01*
%TO.C,C1*%
X91178748Y-70242000D02*
X91701252Y-70242000D01*
X91178748Y-71712000D02*
X91701252Y-71712000D01*
%TO.C,R3*%
X98017064Y-77354000D02*
X97562936Y-77354000D01*
X98017064Y-78824000D02*
X97562936Y-78824000D01*
%TO.C,R1*%
X94514936Y-76792000D02*
X94969064Y-76792000D01*
X94514936Y-75322000D02*
X94969064Y-75322000D01*
%TO.C,C3*%
X111143252Y-73220000D02*
X108820748Y-73220000D01*
X111143252Y-76640000D02*
X108820748Y-76640000D01*
%TO.C,C4*%
X104756748Y-50360000D02*
X107079252Y-50360000D01*
X104756748Y-53780000D02*
X107079252Y-53780000D01*
%TO.C,C5*%
X98230000Y-60306748D02*
X98230000Y-62629252D01*
X94810000Y-60306748D02*
X94810000Y-62629252D01*
%TO.C,J1*%
X89474000Y-72821000D02*
X91374000Y-72821000D01*
X89474000Y-74721000D02*
X89474000Y-72821000D01*
X91374000Y-72821000D02*
X91374000Y-74721000D01*
X91374000Y-74721000D02*
X89474000Y-74721000D01*
%TO.C,J2*%
X89474000Y-77901000D02*
X91374000Y-77901000D01*
X91374000Y-77901000D02*
X91374000Y-79801000D01*
X91374000Y-79801000D02*
X89474000Y-79801000D01*
X89474000Y-79801000D02*
X89474000Y-77901000D01*
%TO.C,K1*%
X113783631Y-48827534D02*
X93277534Y-69333631D01*
X93277534Y-69333631D02*
X102116369Y-78172466D01*
X102116369Y-78172466D02*
X122622466Y-57666369D01*
X122622466Y-57666369D02*
X113783631Y-48827534D01*
%TO.C,R2*%
X91975000Y-79332064D02*
X91975000Y-78877936D01*
X93445000Y-79332064D02*
X93445000Y-78877936D01*
%TO.C,J7*%
X89474000Y-75361000D02*
X91374000Y-75361000D01*
X91374000Y-77261000D02*
X89474000Y-77261000D01*
X91374000Y-75361000D02*
X91374000Y-77261000D01*
X89474000Y-77261000D02*
X89474000Y-75361000D01*
%TO.C,Q1*%
X97790000Y-79069000D02*
X98440000Y-79069000D01*
X97790000Y-82189000D02*
X97140000Y-82189000D01*
X97790000Y-79069000D02*
X96115000Y-79069000D01*
X97790000Y-82189000D02*
X98440000Y-82189000D01*
%TD*%
M02*
